<?xml version="1.0" encoding="UTF-8"?>
<svg version="1.1" xmlns="http://www.w3.org/2000/svg" width="500" height="500">
<path d="M0 0 C1.89890905 1.15306773 3.80731731 2.2888847 5.71826172 3.421875 C6.9176282 4.14037846 8.11685319 4.85911817 9.31591797 5.578125 C10.38712891 6.21621094 11.45833984 6.85429688 12.56201172 7.51171875 C13.70863281 8.31802734 13.70863281 8.31802734 14.87841797 9.140625 C14.87841797 9.800625 14.87841797 10.460625 14.87841797 11.140625 C16.19841797 11.470625 17.51841797 11.800625 18.87841797 12.140625 C18.87841797 12.800625 18.87841797 13.460625 18.87841797 14.140625 C19.96123047 14.511875 19.96123047 14.511875 21.06591797 14.890625 C24.98524773 16.63254934 27.86365321 19.12586024 30.87841797 22.140625 C31.64154297 22.718125 32.40466797 23.295625 33.19091797 23.890625 C35.32151698 25.67438231 36.80647257 27.1902814 38.50341797 29.328125 C40.636419 32.34929108 40.636419 32.34929108 43.87841797 33.140625 C45.52685547 35.03125 45.52685547 35.03125 47.25341797 37.390625 C49.92250244 40.9363753 52.69666394 44.03841482 55.87841797 47.140625 C65.87841797 58.16284722 65.87841797 58.16284722 65.87841797 61.140625 C66.53841797 61.140625 67.19841797 61.140625 67.87841797 61.140625 C69.07384275 62.82187512 70.1855464 64.56310583 71.25341797 66.328125 C72.98660651 69.17986914 74.65690637 71.87435902 76.79248047 74.44140625 C79.62369153 78.10501457 81.70254071 82.06344745 83.87841797 86.140625 C84.28688965 86.89263184 84.69536133 87.64463867 85.11621094 88.41943359 C90.5620276 98.46808136 95.65123808 108.51193995 99.87841797 119.140625 C100.36826172 120.32011719 100.85810547 121.49960938 101.36279297 122.71484375 C104.51892132 130.50850692 106.91169577 138.43668329 109.00341797 146.578125 C109.23287109 147.45065918 109.46232422 148.32319336 109.69873047 149.22216797 C114.72608067 169.62078425 116.6029761 189.85966569 116.44091797 210.828125 C116.43699036 212.00318604 116.43306274 213.17824707 116.42901611 214.38891602 C116.34246039 232.80622455 115.2651401 250.20863151 110.87841797 268.140625 C110.64848145 269.1320752 110.41854492 270.12352539 110.18164062 271.14501953 C105.57351644 290.76134436 98.37019922 309.38709894 88.87841797 327.140625 C88.18425781 328.44386719 88.18425781 328.44386719 87.47607422 329.7734375 C86.30796967 331.91558449 85.10403771 334.03095168 83.87841797 336.140625 C83.45431641 336.88957031 83.03021484 337.63851563 82.59326172 338.41015625 C78.53834069 345.40178888 73.87381107 351.90389146 69.12011719 358.42871094 C67.94681546 360.04632629 66.78906657 361.67518958 65.63232422 363.3046875 C64.95041016 364.26117188 64.26849609 365.21765625 63.56591797 366.203125 C62.97166016 367.03972656 62.37740234 367.87632812 61.76513672 368.73828125 C59.65048551 371.43084956 57.32250506 373.74431705 54.87841797 376.140625 C53.1163283 378.02522682 51.36628035 379.92115925 49.62841797 381.828125 C48.75701172 382.78074219 47.88560547 383.73335938 46.98779297 384.71484375 C44.87347934 386.9426404 44.87347934 386.9426404 43.87841797 389.140625 C43.13591797 389.57375 42.39341797 390.006875 41.62841797 390.453125 C37.47197627 393.00366877 34.57277826 396.09908456 31.87841797 400.140625 C30.21993619 401.15414164 28.55175836 402.15183295 26.87841797 403.140625 C25.80280565 404.02067144 24.74046427 404.9171496 23.69091797 405.828125 C20.87841797 408.140625 20.87841797 408.140625 18.87841797 408.140625 C18.87841797 408.800625 18.87841797 409.460625 18.87841797 410.140625 C18.21841797 410.140625 17.55841797 410.140625 16.87841797 410.140625 C16.54841797 410.800625 16.21841797 411.460625 15.87841797 412.140625 C12.30149489 415.140625 12.30149489 415.140625 9.87841797 415.140625 C9.87841797 415.800625 9.87841797 416.460625 9.87841797 417.140625 C8.88841797 417.140625 7.89841797 417.140625 6.87841797 417.140625 C6.87841797 417.800625 6.87841797 418.460625 6.87841797 419.140625 C5.08960061 420.14571301 3.29727101 421.14455236 1.50341797 422.140625 C0.00681641 422.9759375 0.00681641 422.9759375 -1.52001953 423.828125 C-4.12158203 425.140625 -4.12158203 425.140625 -6.12158203 425.140625 C-6.12158203 425.800625 -6.12158203 426.460625 -6.12158203 427.140625 C-45.03673735 447.62830971 -86.5685622 459.65465944 -130.68408203 459.453125 C-131.55997986 459.45063751 -132.43587769 459.44815002 -133.33831787 459.44558716 C-176.07709092 459.25857527 -220.24364042 449.17688149 -256.90673828 426.453125 C-259.16792703 425.00762503 -259.16792703 425.00762503 -262.12158203 424.140625 C-262.12158203 423.480625 -262.12158203 422.820625 -262.12158203 422.140625 C-262.84345703 421.8725 -263.56533203 421.604375 -264.30908203 421.328125 C-267.11924586 420.14161138 -269.6057476 418.86576861 -272.12158203 417.140625 C-272.12158203 416.480625 -272.12158203 415.820625 -272.12158203 415.140625 C-273.77158203 414.810625 -275.42158203 414.480625 -277.12158203 414.140625 C-277.12158203 413.480625 -277.12158203 412.820625 -277.12158203 412.140625 C-278.44158203 411.810625 -279.76158203 411.480625 -281.12158203 411.140625 C-281.12158203 410.480625 -281.12158203 409.820625 -281.12158203 409.140625 C-282.44158203 408.810625 -283.76158203 408.480625 -285.12158203 408.140625 C-285.12158203 407.480625 -285.12158203 406.820625 -285.12158203 406.140625 C-285.78158203 406.140625 -286.44158203 406.140625 -287.12158203 406.140625 C-289.12158203 404.140625 -289.12158203 404.140625 -290.12158203 402.140625 C-290.78158203 402.140625 -291.44158203 402.140625 -292.12158203 402.140625 C-292.45158203 401.480625 -292.78158203 400.820625 -293.12158203 400.140625 C-294.35908203 399.4290625 -294.35908203 399.4290625 -295.62158203 398.703125 C-298.12158203 397.140625 -298.12158203 397.140625 -299.12158203 394.140625 C-300.4526026 393.46935272 -301.78635344 392.80348759 -303.12158203 392.140625 C-305.12939453 390.14453125 -305.12939453 390.14453125 -307.24658203 387.703125 C-310.44703039 384.04771094 -313.68718995 380.44769451 -316.99658203 376.890625 C-338.74148977 352.95436997 -356.44684129 324.56404082 -367.40454102 294.11938477 C-368.13284014 292.1095569 -368.89312344 290.11383069 -369.65673828 288.1171875 C-376.26097251 270.51520604 -380.14729078 251.80287285 -382.12158203 233.140625 C-382.28980469 231.55894531 -382.28980469 231.55894531 -382.46142578 229.9453125 C-384.63554172 205.22591214 -382.85023636 180.45621715 -378.12158203 156.140625 C-377.99589844 155.47740234 -377.87021484 154.81417969 -377.74072266 154.13085938 C-375.84406293 144.39724019 -372.89350697 135.07944742 -369.68408203 125.703125 C-369.3126709 124.61322266 -368.94125977 123.52332031 -368.55859375 122.40039062 C-366.48588492 116.49384781 -364.14828429 110.91470927 -361.2590332 105.36206055 C-359.71972875 102.35580787 -358.44811185 99.24557941 -357.12158203 96.140625 C-355.92444484 93.69500613 -354.65850614 91.29002841 -353.37158203 88.890625 C-352.84769897 87.91174316 -352.84769897 87.91174316 -352.31323242 86.91308594 C-349.69179065 82.07258807 -346.87512559 77.39789327 -343.85595703 72.79296875 C-342.60928485 70.88645882 -341.39410678 68.95921702 -340.19970703 67.01953125 C-339.57580078 66.00761719 -338.95189453 64.99570313 -338.30908203 63.953125 C-337.74576172 63.03144531 -337.18244141 62.10976562 -336.60205078 61.16015625 C-336.11349609 60.49371094 -335.62494141 59.82726562 -335.12158203 59.140625 C-334.46158203 59.140625 -333.80158203 59.140625 -333.12158203 59.140625 C-332.85345703 58.58375 -332.58533203 58.026875 -332.30908203 57.453125 C-329.77318082 52.51479107 -327.06891077 49.05533119 -323.12158203 45.140625 C-320.74821291 42.63764015 -318.40434795 40.10743088 -316.05908203 37.578125 C-313.75331355 35.09256003 -311.44192185 32.61259242 -309.12158203 30.140625 C-308.35974609 29.32722656 -307.59791016 28.51382813 -306.81298828 27.67578125 C-305.12158203 26.140625 -305.12158203 26.140625 -303.12158203 26.140625 C-303.12158203 25.480625 -303.12158203 24.820625 -303.12158203 24.140625 C-299.65179416 20.91420902 -295.84729782 18.06559985 -292.12158203 15.140625 C-291.59242188 14.72151855 -291.06326172 14.30241211 -290.51806641 13.87060547 C-280.97921605 6.32629495 -271.20707517 -0.81805984 -260.46533203 -6.578125 C-257.64042113 -8.12240963 -254.88710414 -9.77373556 -252.12158203 -11.421875 C-244.04785437 -16.12816851 -235.71792395 -19.45517164 -226.96826172 -22.66625977 C-223.85305662 -23.81236939 -220.81962286 -24.99530972 -217.78955078 -26.359375 C-213.13364695 -28.26338679 -208.4251377 -29.54488671 -203.55908203 -30.796875 C-202.04713257 -31.18601074 -202.04713257 -31.18601074 -200.50463867 -31.58300781 C-130.94136621 -49.08088388 -60.99150982 -37.24867109 0 0 Z " fill="#F5F5F8" transform="translate(384.12158203125,40.859375)"/>
<path d="M0 0 C1.34609848 -0.00953201 1.34609848 -0.00953201 2.71939087 -0.01925659 C15.75834672 -0.07670744 28.22999023 1.17622938 41.0625 3.4375 C42.66812984 3.70940114 44.27376133 3.98129256 45.87939453 4.25317383 C65.86190941 7.71466091 85.34572518 15.68332061 103.0625 25.4375 C104.78339844 26.35402344 104.78339844 26.35402344 106.5390625 27.2890625 C136.61955004 43.78919449 163.80605541 68.31962635 182.0625 97.4375 C179.27470101 98.83139949 178.07894153 98.02244941 175.12890625 97.1015625 C174.09999268 96.7833252 173.0710791 96.46508789 172.01098633 96.13720703 C170.89361084 95.78255371 169.77623535 95.42790039 168.625 95.0625 C167.47733154 94.70397949 166.32966309 94.34545898 165.1472168 93.97607422 C155.37984768 90.90419126 145.66101591 87.68705919 135.96118164 84.40869141 C130.68907227 82.62829117 125.43286421 80.89725565 120.0625 79.4375 C119.69125 80.5925 119.32 81.7475 118.9375 82.9375 C115.12460031 94.34073025 110.65938165 105.50317446 106.16967773 116.65258789 C101.78301247 127.57502014 97.60757364 138.58017894 93.5078125 149.61328125 C90.49401294 157.72099696 87.34276639 165.76065751 84.10253906 173.78076172 C81.42656513 180.43996765 78.91271415 187.14985729 76.49633789 193.9074707 C75.14477917 197.65264866 73.70036323 201.30269674 72.046875 204.92578125 C70.4102813 208.53879292 69.12014099 212.16391882 67.90722656 215.93652344 C66.12257602 221.22032694 63.99389102 226.37995218 61.9375 231.5625 C61.20037757 233.42989316 60.46325778 235.29728738 59.72642517 237.16479492 C58.98286512 239.04861626 58.23836313 240.932063 57.49365234 242.81542969 C50.34531351 260.90617406 50.34531351 260.90617406 43.44018555 279.09057617 C37.95052532 293.8187051 32.28188108 308.48190148 26.40234375 323.05859375 C24.76219347 327.19483279 23.21345013 331.3622262 21.66748047 335.53442383 C18.56847549 343.84359384 15.28635417 352.08214501 12.02075195 360.3269043 C9.25592794 367.32578011 6.58870083 374.34885462 4.0625 381.4375 C1.06035554 379.93642777 0.88107741 377.48309176 -0.14453125 374.45874023 C-0.42683594 373.60610596 -0.70914063 372.75347168 -1 371.875 C-3.68225194 363.9894372 -6.49293122 356.1664642 -9.4375 348.375 C-10.20706518 346.33464821 -10.97659677 344.29428376 -11.74609375 342.25390625 C-12.30272705 340.77881592 -12.30272705 340.77881592 -12.87060547 339.27392578 C-14.43068355 335.12633147 -15.96920648 330.97097917 -17.5 326.8125 C-17.91330566 325.69041138 -17.91330566 325.69041138 -18.33496094 324.5456543 C-19.91708626 320.24074827 -21.48427531 315.93063302 -23.04296875 311.6171875 C-23.3999585 310.63057129 -23.75694824 309.64395508 -24.12475586 308.62744141 C-24.81370161 306.7215639 -25.50082707 304.81502701 -26.18579102 302.90771484 C-27.95686059 298.00704622 -29.86209651 293.21631093 -31.9375 288.4375 C-32.44047453 287.05006784 -32.92348598 285.65502188 -33.375 284.25 C-33.6225 283.49203125 -33.87 282.7340625 -34.125 281.953125 C-34.393125 281.12296875 -34.66125 280.2928125 -34.9375 279.4375 C-35.57976806 277.45717348 -36.22579003 275.47806163 -36.875 273.5 C-37.17277344 272.58347656 -37.47054687 271.66695313 -37.77734375 270.72265625 C-38.70476403 268.09652676 -39.69273999 265.53260275 -40.73828125 262.953125 C-43.1256554 257.03966387 -45.30497424 251.05490265 -47.48330688 245.06185913 C-51.00029969 235.38849045 -54.55545378 225.73227651 -58.25 216.125 C-60.84706015 209.3653773 -63.33695995 202.57954414 -65.72216797 195.74243164 C-68.40183534 188.06982565 -71.22750489 180.45223162 -74.05078125 172.83154297 C-75.49562325 168.93062868 -76.9358828 165.02802938 -78.375 161.125 C-78.6625415 160.34552002 -78.95008301 159.56604004 -79.24633789 158.76293945 C-81.11947533 153.67826513 -82.97345417 148.58690199 -84.8190918 143.4921875 C-88.37929136 133.66467177 -92.01943429 123.87033666 -95.70678711 114.08984375 C-98.25093565 107.32175271 -100.7159264 100.53079649 -103.08642578 93.69995117 C-104.0277507 90.98989694 -104.98889039 88.31482059 -106.09765625 85.66796875 C-106.9375 83.4375 -106.9375 83.4375 -106.9375 80.4375 C-107.5365918 80.62223877 -108.13568359 80.80697754 -108.75292969 80.99731445 C-119.87062959 84.42447354 -130.99016914 87.84540244 -142.1171875 91.2421875 C-142.89920532 91.48094101 -143.68122314 91.71969452 -144.48693848 91.96568298 C-148.33967555 93.14176055 -152.19264114 94.31708315 -156.04589844 95.49145508 C-156.77135864 95.71284653 -157.49681885 95.93423798 -158.2442627 96.16233826 C-159.67849402 96.59983933 -161.11297901 97.03650979 -162.54772949 97.4723053 C-166.21278122 98.58906831 -169.86687843 99.73229181 -173.51074219 100.91650391 C-174.24747162 101.15383743 -174.98420105 101.39117096 -175.74325562 101.63569641 C-177.149939 102.09019292 -178.55470074 102.55069325 -179.95718384 103.01799011 C-184.7143192 104.5490904 -184.7143192 104.5490904 -186.9375 103.4375 C-178.15408704 89.69611468 -168.192809 77.2226595 -156.9375 65.4375 C-156.06480469 64.51195313 -155.19210938 63.58640625 -154.29296875 62.6328125 C-147.36966698 55.4763688 -139.8824364 49.40970611 -131.9375 43.4375 C-130.54724609 42.37208984 -130.54724609 42.37208984 -129.12890625 41.28515625 C-91.51291967 13.05919307 -46.62609962 0.16867063 0 0 Z " fill="#1E2C73" transform="translate(250.9375,32.5625)"/>
<path d="M0 0 C3.12487262 1.341227 3.31220548 1.98422195 4.6484375 5 C5.30628853 6.70030749 5.94159119 8.40944721 6.55859375 10.125 C6.9043042 11.03781738 7.25001465 11.95063477 7.60620117 12.89111328 C8.63476199 15.6277474 9.63345821 18.37336328 10.62109375 21.125 C10.8747168 21.8272168 11.12833984 22.52943359 11.38964844 23.25292969 C12.5746316 26.55049213 13.7312082 29.85727244 14.87890625 33.16796875 C17.11354075 39.57670642 19.46684113 45.94232304 21.80859375 52.3125 C22.15979782 53.26834488 22.15979782 53.26834488 22.51809692 54.24349976 C23.48244338 56.86801302 24.44703988 59.49243401 25.41218567 62.11665344 C27.12147528 66.76419555 28.82748908 71.41292839 30.53125 76.0625 C30.76803467 76.70865265 31.00481934 77.3548053 31.2487793 78.02053833 C31.72203762 79.31204799 32.19528398 80.60356203 32.66851807 81.89508057 C35.62593923 89.96626342 38.58592916 98.03640721 41.56835938 106.09838867 C43.89217502 112.38069049 46.17095265 118.67333766 48.37109375 125 C51.35838239 133.57661085 54.6111149 142.05210574 57.85070801 150.53564453 C61.16887919 159.22830257 64.38848705 167.93952067 67.40234375 176.7421875 C68.27149521 179.15463996 69.1765977 181.47388 70.1953125 183.8203125 C71.24914915 186.26290376 72.15787591 188.59204379 72.93359375 191.125 C74.26774773 195.24620862 75.85811243 199.24251172 77.49609375 203.25 C79.46016182 208.07965595 81.26241335 212.91204983 82.87109375 217.875 C87.20303947 231.17926049 92.24793347 244.25405024 97.21484375 257.33203125 C100.88927283 267.02013351 104.34017329 276.78192861 107.78213501 286.55426025 C110.89575174 295.3872961 114.07870261 304.18142587 117.60327148 312.86083984 C118.97155798 316.26239059 120.05124124 319.49740233 120.62109375 323.125 C73.41523448 325.29538433 26.19369616 306.07159721 -10.37890625 277.125 C-11.20519531 276.50238281 -12.03148438 275.87976563 -12.8828125 275.23828125 C-28.52411309 263.0834385 -42.018666 248.29407934 -53.37890625 232.125 C-53.83056152 231.49142578 -54.2822168 230.85785156 -54.74755859 230.20507812 C-72.63645666 204.97024356 -84.75165278 175.50715 -90.37890625 145.125 C-90.5298877 144.34334473 -90.68086914 143.56168945 -90.83642578 142.75634766 C-97.38524902 107.68093517 -97.8596748 53.84615282 -77.37890625 23.125 C-75.50976562 22.32885742 -75.50976562 22.32885742 -73.22265625 21.73046875 C-71.94986816 21.38520142 -71.94986816 21.38520142 -70.65136719 21.03295898 C-69.73645508 20.79520752 -68.82154297 20.55745605 -67.87890625 20.3125 C-65.95612962 19.78976358 -64.03426505 19.26366185 -62.11328125 18.734375 C-61.14712891 18.46818359 -60.18097656 18.20199219 -59.18554688 17.92773438 C-55.12212221 16.76554402 -51.12625971 15.43231236 -47.12890625 14.0625 C-39.32902012 11.40612287 -31.47125142 9.03019858 -23.55371094 6.75146484 C-19.68011128 5.63565246 -15.8105576 4.50612177 -11.94140625 3.375 C-11.21300537 3.16415771 -10.48460449 2.95331543 -9.73413086 2.73608398 C-0.44621031 0.02344619 -0.44621031 0.02344619 0 0 Z " fill="#D82927" transform="translate(125.37890625,145.875)"/>
<path d="M0 0 C5.99442924 0.65512888 11.50130207 2.21054523 17.25 4 C18.72847412 4.45487793 18.72847412 4.45487793 20.23681641 4.91894531 C31.58645799 8.44191938 42.87135729 12.18036387 54.10888672 16.0456543 C55.9485855 16.652932 57.80442259 17.21464478 59.67626953 17.71411133 C65.51543038 19.31985108 65.51543038 19.31985108 67.9453125 22.73046875 C68.33460938 23.87128906 68.72390625 25.01210937 69.125 26.1875 C69.35106934 26.8369458 69.57713867 27.4863916 69.81005859 28.15551758 C70.5802252 30.42560582 71.28833654 32.71093816 72 35 C72.28617188 35.85851562 72.57234375 36.71703125 72.8671875 37.6015625 C91.03759124 92.11277371 86.03243388 153.35110532 60.5 204.6875 C53.8572909 217.6838544 45.97554984 229.48270153 37 241 C36.38511719 241.82113281 35.77023437 242.64226562 35.13671875 243.48828125 C23.57680204 258.38412583 9.41337288 272.12970424 -6 283 C-6.57991699 283.41362793 -7.15983398 283.82725586 -7.75732422 284.25341797 C-39.26762285 306.53869017 -80.32192856 324.6151841 -119.5625 324.0625 C-120.40941406 324.05347656 -121.25632812 324.04445313 -122.12890625 324.03515625 C-122.74636719 324.02355469 -123.36382812 324.01195312 -124 324 C-122.24886551 317.47164775 -119.95899811 311.26526769 -117.39941406 305.01220703 C-115.49460919 300.32443816 -113.77340873 295.59584387 -112.125 290.8125 C-109.07785152 282.0257703 -105.63119036 273.41912523 -102.13574219 264.80273438 C-96.24574616 250.2676625 -90.40882129 235.7218445 -85 221 C-83.75728773 217.61909945 -82.51361791 214.23856257 -81.26757812 210.85888672 C-80.40567646 208.52029816 -79.54615055 206.18083208 -78.68945312 203.84033203 C-76.34678919 197.48020495 -73.86049549 191.20900111 -71.2253418 184.96484375 C-69.16660492 179.98351268 -67.30622623 174.9300186 -65.4375 169.875 C-64.68730301 167.85115252 -63.93601169 165.82771033 -63.18359375 163.8046875 C-62.85931396 162.92796387 -62.53503418 162.05124023 -62.20092773 161.14794922 C-61.19052693 158.49942146 -60.14959788 155.86810159 -59.0925293 153.23803711 C-57.11423313 148.30937941 -55.21493153 143.35392285 -53.3359375 138.38671875 C-49.22491946 127.55889809 -45.0431742 116.7591512 -40.84899902 105.96331787 C-38.74927372 100.55820572 -36.65198008 95.15215022 -34.5546875 89.74609375 C-34.14907593 88.70064392 -33.74346436 87.65519409 -33.32556152 86.57806396 C-29.31719617 76.24419754 -25.33405348 65.90080198 -21.36376953 55.55224609 C-18.64477639 48.47001368 -15.9198913 41.39004527 -13.19616699 34.30963135 C-11.60326609 30.16872516 -10.01062437 26.02771929 -8.41796875 21.88671875 C-7.83121879 20.36116485 -7.24446753 18.83561145 -6.65771484 17.31005859 C-6.24123688 16.22721588 -6.24123688 16.22721588 -5.81634521 15.12249756 C-3.87756348 10.08166504 -1.93878174 5.04083252 0 0 Z " fill="#D82826" transform="translate(386,145)"/>
<path d="M0 0 C2.0390625 1.08203125 2.0390625 1.08203125 4.625 2.8125 C5.60597656 3.45574219 6.58695313 4.09898437 7.59765625 4.76171875 C8.13922363 5.11927246 8.68079102 5.47682617 9.23876953 5.84521484 C18.22180069 11.73511467 27.23036618 17.49255092 37 22 C37.66 22.33 38.32 22.66 39 23 C39 23.66 39 24.32 39 25 C39.763125 24.938125 40.52625 24.87625 41.3125 24.8125 C44 25 44 25 45.625 26.375 C46.07875 26.91125 46.5325 27.4475 47 28 C47.99 28.66 48.98 29.32 50 30 C47 31 47 31 43.62890625 29.55859375 C42.26831305 28.86147478 40.91310137 28.15378532 39.5625 27.4375 C38.12635286 26.69651615 36.69015439 25.95563179 35.25390625 25.21484375 C34.53992676 24.84214355 33.82594727 24.46944336 33.09033203 24.08544922 C30.0776569 22.52105379 27.03986671 21.01087535 24 19.5 C22.33333333 18.66666667 20.66666667 17.83333333 19 17 C19 16.34 19 15.68 19 15 C18.278125 14.731875 17.55625 14.46375 16.8125 14.1875 C14.00233617 13.00098638 11.51583443 11.72514361 9 10 C9 9.34 9 8.68 9 8 C7.35 7.67 5.7 7.34 4 7 C4 6.34 4 5.68 4 5 C2.68 4.67 1.36 4.34 0 4 C0 3.34 0 2.68 0 2 C-0.66 1.67 -1.32 1.34 -2 1 C-1.34 0.67 -0.68 0.34 0 0 Z " fill="#CCCED3" transform="translate(103,448)"/>
<path d="M0 0 C2.75086659 0.1500723 5.49564733 0.14013381 8.25 0.125 C9.32894531 0.13080078 9.32894531 0.13080078 10.4296875 0.13671875 C14.34314201 0.20134589 14.34314201 0.20134589 18 -1 C19.34246312 -0.35191436 20.67432801 0.31822584 22 1 C23.65740715 1.37668344 25.32345271 1.72057545 27 2 C27 2.33 27 2.66 27 3 C21.43156251 3.02481649 15.86315759 3.04291507 10.29467773 3.05493164 C8.40241942 3.05994403 6.51016495 3.06675567 4.61791992 3.07543945 C1.88980152 3.08764098 -0.83826543 3.09325938 -3.56640625 3.09765625 C-4.40522842 3.10281754 -5.2440506 3.10797882 -6.10829163 3.11329651 C-10.8480001 3.11374383 -15.32547312 2.79326968 -20 2 C-19.67 1.34 -19.34 0.68 -19 0 C-18.31292969 0.09539062 -17.62585938 0.19078125 -16.91796875 0.2890625 C-16.01691406 0.39992188 -15.11585938 0.51078125 -14.1875 0.625 C-12.84751953 0.79902344 -12.84751953 0.79902344 -11.48046875 0.9765625 C-6.7684917 1.02108512 -5.22183013 -0.99288319 0 0 Z " fill="#D1D3D9" transform="translate(246,497)"/>
<path d="M0 0 C0.66 0 1.32 0 2 0 C2 13.86 2 27.72 2 42 C0 40 0 40 -0.16015625 37.57421875 C-0.12792969 36.62160156 -0.09570312 35.66898437 -0.0625 34.6875 C0.02495271 31.90042029 0.08954308 29.42335969 -0.48828125 26.69140625 C-1.21439833 22.87236297 -1.14461831 19.12788562 -1.125 15.25 C-1.12886719 14.47011719 -1.13273437 13.69023437 -1.13671875 12.88671875 C-1.12670133 7.12670133 -1.12670133 7.12670133 0 6 C-0.165 5.360625 -0.33 4.72125 -0.5 4.0625 C-1 2 -1 2 0 0 Z " fill="#CFD1D6" transform="translate(498,237)"/>
<path d="M0 0 C0.66 0.66 1.32 1.32 2 2 C-30.30769231 17 -30.30769231 17 -43 17 C-43 16.34 -43 15.68 -43 15 C-41.75863281 14.66226562 -40.51726562 14.32453125 -39.23828125 13.9765625 C-37.5963124 13.5261939 -35.95438763 13.07566461 -34.3125 12.625 C-33.49587891 12.40328125 -32.67925781 12.1815625 -31.83789062 11.953125 C-27.77937689 10.83580138 -23.88817736 9.63029329 -20 8 C-18.515 7.62875 -18.515 7.62875 -17 7.25 C-11.05173424 5.63376743 -5.5401658 2.64928229 0 0 Z " fill="#D7DADE" transform="translate(352,477)"/>
<path d="M0 0 C0.66 0 1.32 0 2 0 C2.804375 0.969375 3.60875 1.93875 4.4375 2.9375 C6.70684377 6.19375327 6.70684377 6.19375327 10 7 C11.6484375 8.890625 11.6484375 8.890625 13.375 11.25 C15.4216868 13.97747033 17.42361599 16.56450327 19.875 18.9375 C22 21 22 21 23 23 C22.34 23.66 21.68 24.32 21 25 C20.52949219 24.44570312 20.05898438 23.89140625 19.57421875 23.3203125 C18.95160156 22.59585938 18.32898438 21.87140625 17.6875 21.125 C17.07261719 20.40570313 16.45773437 19.68640625 15.82421875 18.9453125 C13.9587676 16.80820669 13.9587676 16.80820669 11 15 C11 14.34 11 13.68 11 13 C10.40574219 12.73960938 9.81148438 12.47921875 9.19921875 12.2109375 C6.85889461 10.92230431 5.53403359 9.65189559 3.8125 7.625 C3.30332031 7.03976563 2.79414063 6.45453125 2.26953125 5.8515625 C0.92440727 3.88975091 0.42485598 2.323911 0 0 Z " fill="#D6D8DD" transform="translate(418,67)"/>
<path d="M0 0 C2.82854604 5.07340007 3.49099214 10.66316436 4.5625 16.3125 C4.78574951 17.47700684 5.00899902 18.64151367 5.23901367 19.84130859 C6.79683236 28.24267324 7.84488733 36.45470197 8 45 C7.34 45 6.68 45 6 45 C5.94392578 44.12214844 5.94392578 44.12214844 5.88671875 43.2265625 C5.41086161 37.0124281 4.57415668 30.89557795 3.5625 24.75 C3.44028076 23.99412598 3.31806152 23.23825195 3.19213867 22.45947266 C2.41605373 17.86347648 1.32569118 13.47557723 0 9 C-1.19277108 2.38554217 -1.19277108 2.38554217 0 0 Z " fill="#D2D3D8" transform="translate(492,187)"/>
<path d="M0 0 C1.10673834 0.76713644 2.21027694 1.53889003 3.3125 2.3125 C4.23482422 2.95638672 4.23482422 2.95638672 5.17578125 3.61328125 C6.96395454 4.97259928 8.52405129 6.30606501 10 8 C10 8.66 10 9.32 10 10 C10.58265625 10.26554687 11.1653125 10.53109375 11.765625 10.8046875 C14.06174228 12.03302996 15.80356018 13.40314939 17.75 15.125 C18.67039062 15.93324219 18.67039062 15.93324219 19.609375 16.7578125 C20.06828125 17.16773438 20.5271875 17.57765625 21 18 C20.01 18.66 19.02 19.32 18 20 C18 19.34 18 18.68 18 18 C17.34 18 16.68 18 16 18 C15.67 17.34 15.34 16.68 15 16 C14.175 15.525625 13.35 15.05125 12.5 14.5625 C10 13 10 13 9 10 C8.4225 9.731875 7.845 9.46375 7.25 9.1875 C3.90788997 7.4236086 2.2646887 5.01958493 0 2 C0 1.34 0 0.68 0 0 Z " fill="#C4C6CC" transform="translate(76,425)"/>
<path d="M0 0 C3.9492568 0.55105909 7.34920174 1.38935371 11 3 C11 3.66 11 4.32 11 5 C11.763125 4.938125 12.52625 4.87625 13.3125 4.8125 C16 5 16 5 17.625 6.375 C18.305625 7.179375 18.305625 7.179375 19 8 C19.99 8.66 20.98 9.32 22 10 C19 11 19 11 15.3125 9.453125 C13.86976221 8.72909423 12.43241524 7.99424422 11 7.25 C10.27554688 6.8890625 9.55109375 6.528125 8.8046875 6.15625 C5.36199256 4.40314335 2.64935435 2.85926473 0 0 Z " fill="#CFD0D6" transform="translate(131,468)"/>
<path d="M0 0 C2.5999298 2.51027705 4.99091227 4.9863684 7 8 C7 8.66 7 9.32 7 10 C7.66 10 8.32 10 9 10 C9.99 11.98 10.98 13.96 12 16 C9 16 9 16 7.0625 14.4375 C4.96957309 11.96404093 3.49025224 9.51592804 1.94921875 6.68359375 C0.80156643 4.6480458 -0.54155144 2.8230607 -2 1 C-1.34 0.67 -0.68 0.34 0 0 Z " fill="#D2D4D9" transform="translate(443,92)"/>
<path d="M0 0 C2.125 0.9375 2.125 0.9375 4 2 C2.55527654 5.80881639 0.67396929 7.29742886 -3 9 C-3.99 8.67 -4.98 8.34 -6 8 C-5.34 8 -4.68 8 -4 8 C-3.855625 7.401875 -3.71125 6.80375 -3.5625 6.1875 C-3.1127561 4.43849596 -2.57107659 2.71322977 -2 1 C-1.34 0.67 -0.68 0.34 0 0 Z " fill="#CCCCD0" transform="translate(426,424)"/>
<path d="M0 0 C0.66 0 1.32 0 2 0 C2.804375 0.969375 3.60875 1.93875 4.4375 2.9375 C6.70684377 6.19375327 6.70684377 6.19375327 10 7 C11.1875 9.0625 11.1875 9.0625 12 11 C8.27944454 11 6.98893229 10.18702362 4 8 C0 2.7027027 0 2.7027027 0 0 Z " fill="#CECFD2" transform="translate(418,67)"/>
<path d="M0 0 C2.56640625 1.36328125 2.56640625 1.36328125 5.5625 3.3125 C7.04943359 4.26576172 7.04943359 4.26576172 8.56640625 5.23828125 C11 7 11 7 12 9 C11.01 9.33 10.02 9.66 9 10 C9 9.34 9 8.68 9 8 C7.35 7.67 5.7 7.34 4 7 C4 6.34 4 5.68 4 5 C2.68 4.67 1.36 4.34 0 4 C0 3.34 0 2.68 0 2 C-0.66 1.67 -1.32 1.34 -2 1 C-1.34 0.67 -0.68 0.34 0 0 Z " fill="#C2C5CB" transform="translate(103,448)"/>
<path d="M0 0 C0.66 0.66 1.32 1.32 2 2 C-2.93387858 4.25861997 -7.80355921 6.40109514 -13 8 C-12 5 -12 5 -9.27734375 3.61328125 C-8.17519531 3.18402344 -7.07304687 2.75476563 -5.9375 2.3125 C-4.83277344 1.87550781 -3.72804688 1.43851562 -2.58984375 0.98828125 C-1.73519531 0.66214844 -0.88054687 0.33601563 0 0 Z " fill="#D0D1D7" transform="translate(352,477)"/>
<path d="M0 0 C4.29 1.65 8.58 3.3 13 5 C13 5.66 13 6.32 13 7 C2.44191344 3.92482916 2.44191344 3.92482916 -2 2 C-1.34 1.34 -0.68 0.68 0 0 Z " fill="#D1D2D7" transform="translate(154,478)"/>
<path d="M0 0 C0 0.99 0 1.98 0 3 C-1.65 3.66 -3.3 4.32 -5 5 C-5 5.66 -5 6.32 -5 7 C-6.65 7 -8.3 7 -10 7 C-3.24137931 0 -3.24137931 0 0 0 Z " fill="#C9CBD1" transform="translate(399,451)"/>
<path d="M0 0 C5.54621849 -0.3697479 5.54621849 -0.3697479 7.6875 1.375 C8.120625 1.91125 8.55375 2.4475 9 3 C9.99 3.66 10.98 4.32 12 5 C9 6 9 6 6.73828125 5.00390625 C5.93777344 4.52824219 5.13726562 4.05257813 4.3125 3.5625 C3.50425781 3.08941406 2.69601563 2.61632812 1.86328125 2.12890625 C1.24839844 1.75636719 0.63351563 1.38382812 0 1 C0 0.67 0 0.34 0 0 Z " fill="#D5D6DC" transform="translate(141,473)"/>
<path d="M0 0 C2.97 1.65 5.94 3.3 9 5 C9 5.66 9 6.32 9 7 C5.00544473 6.38545304 2.25533664 4.29353263 -1 2 C-0.67 1.34 -0.34 0.68 0 0 Z " fill="#DCDDE0" transform="translate(390,45)"/>
<path d="M0 0 C2.39489543 0.74324341 3.70777616 1.47057354 4.93359375 3.69140625 C5.67219923 5.44073501 6.34049685 7.21934149 7 9 C3.17475764 7.549046 1.80909034 5.61818068 0 2 C0 1.34 0 0.68 0 0 Z " fill="#D5D6DC" transform="translate(465,126)"/>
<path d="M0 0 C2.44839588 3.67259383 4 6.54648201 4 11 C3.34 11 2.68 11 2 11 C0.19769832 7.17010894 -0.19622241 4.21878192 0 0 Z " fill="#DC3C3A" transform="translate(140,181)"/>
<path d="M0 0 C-2.62198774 2.15377564 -4.64404172 3.40072174 -8 4 C-5.97675095 -0.48005146 -4.79569304 -1.43870791 0 0 Z " fill="#CDCFD6" transform="translate(366,473)"/>
<path d="M0 0 C-1 3 -1 3 -4.0625 4.6875 C-5.031875 5.120625 -6.00125 5.55375 -7 6 C-7 5.01 -7 4.02 -7 3 C-2.77777778 0 -2.77777778 0 0 0 Z " fill="#D0D1D7" transform="translate(388,459)"/>
<path d="M0 0 C0.66 0.33 1.32 0.66 2 1 C0.68 3.64 -0.64 6.28 -2 9 C-2.66 8.01 -3.32 7.02 -4 6 C-2.68 4.02 -1.36 2.04 0 0 Z " fill="#D5D9DE" transform="translate(475,359)"/>
<path d="M0 0 C2.72426311 2.35277269 3.8141763 4.62496331 5 8 C4.01 8 3.02 8 2 8 C1.01 5.69 0.02 3.38 -1 1 C-0.67 0.67 -0.34 0.34 0 0 Z " fill="#D7DADE" transform="translate(473,139)"/>
<path d="M0 0 C1.32 0 2.64 0 4 0 C4 0.66 4 1.32 4 2 C-0.38461538 5 -0.38461538 5 -3 5 C-2.67 4.01 -2.34 3.02 -2 2 C-1.34 2 -0.68 2 0 2 C0 1.34 0 0.68 0 0 Z " fill="#D0D2D7" transform="translate(369,468)"/>
<path d="M0 0 C0.33 0 0.66 0 1 0 C0.125 6.75 0.125 6.75 -1 9 C-1.66 9 -2.32 9 -3 9 C-2.01 6.03 -1.02 3.06 0 0 Z " fill="#DB3331" transform="translate(323,309)"/>
</svg>
