<?xml version="1.0" encoding="UTF-8"?>
<svg version="1.1" xmlns="http://www.w3.org/2000/svg" width="395" height="90">
<path d="M0 0 C130.35 0 260.7 0 395 0 C395 29.7 395 59.4 395 90 C264.65 90 134.3 90 0 90 C0 60.3 0 30.6 0 0 Z " fill="#FDFCFC" transform="translate(0,0)"/>
<path d="M0 0 C0.20753906 0.64582031 0.41507813 1.29164062 0.62890625 1.95703125 C4.99279023 15.30430818 9.64152587 28.50142166 15.7109375 41.17578125 C17.47363118 45.03768286 18.76212606 48.94252431 20 53 C20.66 53 21.32 53 22 53 C22.15855469 52.27296875 22.31710938 51.5459375 22.48046875 50.796875 C24.26161744 43.12120662 26.84893905 36.20362865 30 29 C35.33168579 16.60495483 35.33168579 16.60495483 39.4921875 3.78515625 C40 2 40 2 41 0 C45.60157447 0.47933067 49.44894806 1.39285512 53.71484375 3.18359375 C57.06222938 4.37949733 60.55153218 5.13788305 64 6 C64 23.49 64 40.98 64 59 C35.29 59 6.58 59 -23 59 C-23 41.51 -23 24.02 -23 6 C-17.72 4.35 -12.44 2.7 -7 1 C-4 0 -4 0 0 0 Z " fill="#D82A28" transform="translate(28,27)"/>
<path d="M0 0 C28.71 0 57.42 0 87 0 C87 7.92 87 15.84 87 24 C76.875 21.75 76.875 21.75 73.40234375 20.9296875 C72.29536133 20.66865234 72.29536133 20.66865234 71.16601562 20.40234375 C70.06290039 20.14130859 70.06290039 20.14130859 68.9375 19.875 C68.16728516 19.69324219 67.39707031 19.51148437 66.60351562 19.32421875 C64.73555406 18.88333341 62.86775888 18.4417432 61 18 C60.84176758 18.58209229 60.68353516 19.16418457 60.52050781 19.76391602 C58.94171239 25.48076862 56.88284845 30.93782492 54.6875 36.4375 C50.95626268 45.8085155 47.92063674 55.35013062 45 65 C44.01 65 43.02 65 42 65 C41.78085937 64.1028125 41.56171875 63.205625 41.3359375 62.28125 C38.69523338 51.89018662 35.17385867 42.04412535 31.24267578 32.08056641 C30.5342128 30.28388929 29.82952152 28.48572631 29.125 26.6875 C28.71507813 25.66011719 28.30515625 24.63273437 27.8828125 23.57421875 C27 21 27 21 27 18 C20.78275024 19.14634757 14.7150542 20.56136907 8.640625 22.31640625 C5.79989684 23.05180185 2.8944474 23.5175921 0 24 C0 16.08 0 8.16 0 0 Z " fill="#2A397D" transform="translate(5,5)"/>
<path d="M0 0 C0.28198242 0.79583496 0.56396484 1.59166992 0.85449219 2.41162109 C1.91897734 5.41284153 2.98527452 8.41341065 4.05273438 11.41357422 C4.51112423 12.70303645 4.96882688 13.99274322 5.42578125 15.28271484 C7.87666454 22.20001046 10.34899531 29.07725285 13.23632812 35.82617188 C14.52926303 39.50657225 14.74977252 43.12147401 15 47 C15.99 47 16.98 47 18 47 C18.10828125 46.02417969 18.2165625 45.04835937 18.328125 44.04296875 C18.96358042 39.62033236 20.30359965 35.52849752 21.75 31.3125 C22.14989136 30.12938232 22.14989136 30.12938232 22.55786133 28.92236328 C24.4600045 23.37373869 26.5759247 17.94842191 28.90234375 12.5625 C29.92005233 10.18663939 30.85400825 7.79893902 31.75 5.375 C33 2 33 2 34 0 C41.90709331 0.645477 49.39133967 2.86997139 57 5 C54.92446352 5.5534764 53.15634036 6 51 6 C52.65 6.66 54.3 7.32 56 8 C51.83326479 9.79341438 48.25336659 8.01173384 44.25 6.5625 C43.55261719 6.31951172 42.85523437 6.07652344 42.13671875 5.82617188 C40.42114902 5.22689752 38.71010285 4.61470115 37 4 C36.86464844 4.66902344 36.72929688 5.33804687 36.58984375 6.02734375 C34.20572213 16.66309587 29.89850995 26.38922732 25.5390625 36.33203125 C22.61088689 43.10232818 20.57203873 49.79162728 19 57 C17.68 57 16.36 57 15 57 C14.61328125 55.9378125 14.2265625 54.875625 13.828125 53.78125 C13.30232469 52.35407772 12.77626929 50.92699941 12.25 49.5 C11.87101562 48.45585938 11.87101562 48.45585938 11.484375 47.390625 C10.16003504 43.81490711 8.73739767 40.38628434 6.98828125 36.99609375 C4.91948751 32.96645195 3.39329981 28.84604223 1.9375 24.5625 C1.68145996 23.82112793 1.42541992 23.07975586 1.16162109 22.31591797 C0.66073338 20.86235521 0.16225163 19.40796052 -0.33349609 17.95263672 C-0.89753995 16.30017417 -1.47291217 14.651585 -2.05078125 13.00390625 C-3.13144689 9.88482864 -4 7.32552929 -4 4 C-6.97 4.66 -9.94 5.32 -13 6 C-13 5.34 -13 4.68 -13 4 C-13.67546875 4.22816406 -14.3509375 4.45632812 -15.046875 4.69140625 C-15.93890625 4.97886719 -16.8309375 5.26632813 -17.75 5.5625 C-18.63171875 5.85253906 -19.5134375 6.14257812 -20.421875 6.44140625 C-23.07834316 7.01697435 -24.47031106 6.89248371 -27 6 C-26.13117187 5.73445313 -25.26234375 5.46890625 -24.3671875 5.1953125 C-23.21476562 4.84210937 -22.06234375 4.48890625 -20.875 4.125 C-19.73804688 3.77695312 -18.60109375 3.42890625 -17.4296875 3.0703125 C-15.28815118 2.40199706 -13.1627344 1.6762573 -11.0703125 0.8671875 C-7.21197421 -0.22257217 -3.99975307 -0.13792252 0 0 Z " fill="#E7DADE" transform="translate(32,23)"/>
<path d="M0 0 C0.99 0 1.98 0 3 0 C4.34820963 3.66138149 5.6799208 7.32838186 7 11 C7.46212891 12.28390625 7.46212891 12.28390625 7.93359375 13.59375 C8.20300781 14.3671875 8.47242188 15.140625 8.75 15.9375 C9.11351562 16.97197266 9.11351562 16.97197266 9.484375 18.02734375 C10 20 10 20 10 24 C10.66 24 11.32 24 12 24 C12.309375 22.4840625 12.309375 22.4840625 12.625 20.9375 C13.73396183 16.51760897 15.29416107 12.3056957 16.9375 8.0625 C17.19031738 7.38759521 17.44313477 6.71269043 17.70361328 6.01733398 C18.38160828 4.30756021 19.18326669 2.64801404 20 1 C20.99 0.67 21.98 0.34 23 0 C24.01234773 4.35139004 25.00766485 8.70650631 26 13.0625 C26.28617187 14.29162109 26.57234375 15.52074219 26.8671875 16.78710938 C27.13789063 17.98271484 27.40859375 19.17832031 27.6875 20.41015625 C27.93886719 21.50465088 28.19023437 22.59914551 28.44921875 23.72680664 C29.03494079 27.20764679 29.09358885 30.47676972 29 34 C27.68 34 26.36 34 25 34 C24.32923511 31.23010036 23.66323683 28.45920258 23 25.6875 C22.80921875 24.90181641 22.6184375 24.11613281 22.421875 23.30664062 C22.15117187 22.1706543 22.15117187 22.1706543 21.875 21.01171875 C21.70742188 20.31522217 21.53984375 19.61872559 21.3671875 18.90112305 C21 17 21 17 21 14 C20.34 14 19.68 14 19 14 C18.89816406 14.66386719 18.79632813 15.32773437 18.69140625 16.01171875 C17.81681465 19.79173327 16.41394985 23.23270859 14.9375 26.8125 C14.65583984 27.50537109 14.37417969 28.19824219 14.08398438 28.91210938 C13.39325027 30.60967624 12.69716272 32.30506312 12 34 C11.34 34 10.68 34 10 34 C8.99263372 31.06497405 7.99539496 28.12660539 7 25.1875 C6.71382813 24.35412109 6.42765625 23.52074219 6.1328125 22.66210938 C5.86210937 21.85966797 5.59140625 21.05722656 5.3125 20.23046875 C5.06113281 19.49207764 4.80976563 18.75368652 4.55078125 17.99291992 C4 16 4 16 4 13 C3.34 13 2.68 13 2 13 C1.87882812 13.60585938 1.75765625 14.21171875 1.6328125 14.8359375 C0.421875 20.890625 -0.7890625 26.9453125 -2 33 C-4.475 33.495 -4.475 33.495 -7 34 C-5.64321789 26.22680917 -4.07511498 18.51738154 -2.375 10.8125 C-2.03082031 9.24145508 -2.03082031 9.24145508 -1.6796875 7.63867188 C-1.12152634 5.09206157 -0.56160856 2.54585183 0 0 Z " fill="#DB2F27" transform="translate(320,44)"/>
<path d="M0 0 C0.99 0 1.98 0 3 0 C4.17400588 3.43503772 5.33793209 6.87340714 6.5 10.3125 C6.83386719 11.28896484 7.16773437 12.26542969 7.51171875 13.27148438 C7.82753906 14.20927734 8.14335938 15.14707031 8.46875 16.11328125 C8.76201172 16.97735596 9.05527344 17.84143066 9.35742188 18.73168945 C10 21 10 21 10 24 C10.66 24 11.32 24 12 24 C12.15855469 23.42894531 12.31710938 22.85789062 12.48046875 22.26953125 C13.97077761 17.09050213 15.65052265 11.99981566 17.5 6.9375 C17.9021875 5.83277344 18.304375 4.72804688 18.71875 3.58984375 C19.1415625 2.73519531 19.564375 1.88054688 20 1 C20.99 0.67 21.98 0.34 23 0 C24.69109465 4.67064236 25.7083023 9.25290941 26.5625 14.125 C27.43918484 19.20449828 27.43918484 19.20449828 28.5859375 24.2265625 C29.33943003 27.4537852 29.05498248 30.70105136 29 34 C27.68 34 26.36 34 25 34 C24.49550598 31.41747107 23.99625699 28.83411297 23.5 26.25 C23.35691406 25.52039063 23.21382812 24.79078125 23.06640625 24.0390625 C22.41111121 20.60656468 22 17.50830509 22 14 C19.66151882 16.10382109 18.49435728 17.7813993 17.5 20.7578125 C17.2525 21.46550781 17.005 22.17320313 16.75 22.90234375 C16.24763264 24.39113035 15.74765361 25.88072487 15.25 27.37109375 C14.58077121 29.27769868 13.79747498 31.14337856 13 33 C11.515 33.495 11.515 33.495 10 34 C8.99263372 31.06497405 7.99539496 28.12660539 7 25.1875 C6.71382812 24.35412109 6.42765625 23.52074219 6.1328125 22.66210938 C5.86210938 21.85966797 5.59140625 21.05722656 5.3125 20.23046875 C5.06113281 19.49207764 4.80976562 18.75368652 4.55078125 17.99291992 C4 16 4 16 4 13 C3.34 13 2.68 13 2 13 C1.87882812 13.60585938 1.75765625 14.21171875 1.6328125 14.8359375 C0.421875 20.890625 -0.7890625 26.9453125 -2 33 C-3.98 33.495 -3.98 33.495 -6 34 C-6.126464 29.23915743 -5.75264374 25.0479696 -4.6875 20.41015625 C-4.41679688 19.21455078 -4.14609375 18.01894531 -3.8671875 16.78710938 C-3.58101563 15.55798828 -3.29484375 14.32886719 -3 13.0625 C-2.71382813 11.80630859 -2.42765625 10.55011719 -2.1328125 9.25585938 C-1.42857905 6.16896942 -0.71745298 3.08383934 0 0 Z " fill="#DC372F" transform="translate(113,44)"/>
<path d="M0 0 C3.32053489 2.67022242 4.4812004 6.19610353 5.9375 10.0625 C6.46072185 11.41675001 6.98415985 12.77091652 7.5078125 14.125 C7.88728027 15.11693359 7.88728027 15.11693359 8.27441406 16.12890625 C9.24256288 18.62550536 10.28050268 21.0917327 11.3125 23.5625 C12.70442085 27.02208751 13.60702347 30.26672299 14 34 C12.35 34 10.7 34 9 34 C8.34 31.69 7.68 29.38 7 27 C2.05 27 -2.9 27 -8 27 C-8.33 28.65 -8.66 30.3 -9 32 C-9.33 32.66 -9.66 33.32 -10 34 C-11.65 34 -13.3 34 -15 34 C-14.39765855 30.11279649 -13.21002821 27.15639023 -11.375 23.6875 C-8.41829211 17.94590259 -5.80555898 12.10539265 -3.27294922 6.16870117 C-1.0972523 1.0972523 -1.0972523 1.0972523 0 0 Z " fill="#DC342C" transform="translate(241,44)"/>
<path d="M0 0 C3.0511689 2.56996493 4.20580013 5.40167782 5.69921875 9.05859375 C6.42915039 10.84426758 6.42915039 10.84426758 7.17382812 12.66601562 C7.42205322 13.28516846 7.67027832 13.90432129 7.92602539 14.54223633 C8.68524111 16.43187777 9.45983897 18.31466656 10.23632812 20.19726562 C14 29.48835948 14 29.48835948 14 34 C12.35 34 10.7 34 9 34 C8.67 31.69 8.34 29.38 8 27 C2.72 27 -2.56 27 -8 27 C-8.66 29.31 -9.32 31.62 -10 34 C-11.65 34 -13.3 34 -15 34 C-13.66573438 29.77988704 -12.08028853 25.80923609 -10.21484375 21.796875 C-9.68439453 20.6521875 -9.15394531 19.5075 -8.60742188 18.328125 C-8.05634766 17.14734375 -7.50527344 15.9665625 -6.9375 14.75 C-6.38255859 13.55375 -5.82761719 12.3575 -5.25585938 11.125 C-1.25979663 2.51959325 -1.25979663 2.51959325 0 0 Z " fill="#DD4841" transform="translate(369,44)"/>
<path d="M0 0 C0.66 0 1.32 0 2 0 C6.56865651 11.25561668 11.0440575 22.51255159 15 34 C13.02 34 11.04 34 9 34 C8.67 31.69 8.34 29.38 8 27 C2.72 27 -2.56 27 -8 27 C-8.33 28.65 -8.66 30.3 -9 32 C-9.33 32.66 -9.66 33.32 -10 34 C-11.65 34 -13.3 34 -15 34 C-12.66080593 26.26014033 -9.36547181 19.18991479 -5.8125 11.9375 C-5.25369141 10.78572266 -4.69488281 9.63394531 -4.11914062 8.44726562 C-2.75097933 5.62908723 -1.37784257 2.8134543 0 0 Z " fill="#DD433C" transform="translate(294,44)"/>
<path d="M0 0 C5.25488504 0.0434288 9.78242432 0.67706159 14 4 C16.34693138 7.52039707 16.32723764 9.20057009 16.375 13.375 C16.40335938 14.49648438 16.43171875 15.61796875 16.4609375 16.7734375 C15.90259671 20.68182301 14.77877837 22.24072183 12 25 C8.97443417 26.85639674 6.77698317 27.2287348 3.25 27.125 C2.45078125 27.10695313 1.6515625 27.08890625 0.828125 27.0703125 C0.22484375 27.04710938 -0.3784375 27.02390625 -1 27 C-1.02886537 22.68751391 -1.04675255 18.37505238 -1.0625 14.0625 C-1.07087891 12.83080078 -1.07925781 11.59910156 -1.08789062 10.33007812 C-1.09111328 9.16025391 -1.09433594 7.99042969 -1.09765625 6.78515625 C-1.10289307 5.70113525 -1.10812988 4.61711426 -1.11352539 3.50024414 C-1 1 -1 1 0 0 Z " fill="#FDF6F5" transform="translate(184,47)"/>
<path d="M0 0 C16.44591029 0 16.44591029 0 23.64453125 6.48046875 C26.97488882 10.21392435 26.32841786 15.3462883 26.27734375 20.05078125 C25.90073691 24.0555441 24.75976479 26.09498443 22 29 C14.06552841 34.99133569 11.25837098 34 0 34 C0 22.78 0 11.56 0 0 Z M4 4 C3.91251793 5.92667507 3.89302666 7.85651861 3.90234375 9.78515625 C3.90556641 10.95498047 3.90878906 12.12480469 3.91210938 13.33007812 C3.92048828 14.56177734 3.92886719 15.79347656 3.9375 17.0625 C3.94201172 18.29806641 3.94652344 19.53363281 3.95117188 20.80664062 C3.96300392 23.87114117 3.97948827 26.93554721 4 30 C5.42803568 30.04924261 6.85656713 30.08423151 8.28515625 30.11328125 C9.08058838 30.13430908 9.87602051 30.15533691 10.69555664 30.17700195 C14.26874117 29.90254928 16.33024246 28.27906131 19 26 C22.25238374 21.12142439 21.70061387 15.69784956 21 10 C18.33424703 6.1156171 15.53791476 4.21748932 11 3 C7.19576266 2.48725894 7.19576266 2.48725894 4 4 Z " fill="#DC362E" transform="translate(179,44)"/>
<path d="M0 0 C7.59 0 15.18 0 23 0 C23 1.32 23 2.64 23 4 C17.06 4 11.12 4 5 4 C5 7.3 5 10.6 5 14 C8.96 14 12.92 14 17 14 C17 14.99 17 15.98 17 17 C12.71 17 8.42 17 4 17 C4 21.29 4 25.58 4 30 C9.94 30 15.88 30 22 30 C22 31.32 22 32.64 22 34 C14.74 34 7.48 34 0 34 C0 22.78 0 11.56 0 0 Z " fill="#DE4841" transform="translate(149,44)"/>
<path d="M0 0 C9.9 0 19.8 0 30 0 C30 1.32 30 2.64 30 4 C25.71 4 21.42 4 17 4 C17 13.9 17 23.8 17 34 C15.35 34 13.7 34 12 34 C12 24.1 12 14.2 12 4 C8.04 4 4.08 4 0 4 C0 2.68 0 1.36 0 0 Z " fill="#E15F5B" transform="translate(252,44)"/>
<path d="M0 0 C6.46153846 0.46153846 6.46153846 0.46153846 9 3 C9.70125 2.484375 10.4025 1.96875 11.125 1.4375 C14.60887535 -0.30443767 16.2983569 0.05306805 20 1 C20.33 2.98 20.66 4.96 21 7 C18.69 7 16.38 7 14 7 C14.33 7.66 14.66 8.32 15 9 C16.98 8.67 18.96 8.34 21 8 C20.67 8.99 20.34 9.98 20 11 C17.1875 11.625 17.1875 11.625 14 12 C13.01 11.34 12.02 10.68 11 10 C9.14733927 10.29485154 9.14733927 10.29485154 7 11 C3.375 11.6875 3.375 11.6875 0 12 C-2 10 -2 10 -2.265625 8.125 C-2.26046875 7.42375 -2.2553125 6.7225 -2.25 6 C-2.25515625 5.29875 -2.2603125 4.5975 -2.265625 3.875 C-2 2 -2 2 0 0 Z " fill="#F9FAFB" transform="translate(297,16)"/>
<path d="M0 0 C3.45432283 3.12441559 4.89301928 6.51977883 6 11 C5.6875 14 5.6875 14 5 16 C2 12.375 2 12.375 2 9 C1.34 9 0.68 9 0 9 C-0.2475 9.78375 -0.495 10.5675 -0.75 11.375 C-2.34052008 15.98750822 -4.16690081 20.47835532 -6 25 C-1.71 25 2.58 25 7 25 C7 25.33 7 25.66 7 26 C2.38 26.33 -2.24 26.66 -7 27 C-7.99 29.31 -8.98 31.62 -10 34 C-11.65 34 -13.3 34 -15 34 C-13.66573438 29.77988704 -12.08028853 25.80923609 -10.21484375 21.796875 C-9.68439453 20.6521875 -9.15394531 19.5075 -8.60742188 18.328125 C-8.05634766 17.14734375 -7.50527344 15.9665625 -6.9375 14.75 C-6.38255859 13.55375 -5.82761719 12.3575 -5.25585938 11.125 C-1.25979663 2.51959325 -1.25979663 2.51959325 0 0 Z " fill="#DC342C" transform="translate(369,44)"/>
<path d="M0 0 C3.32053489 2.67022242 4.4812004 6.19610353 5.9375 10.0625 C6.46072185 11.41675001 6.98415985 12.77091652 7.5078125 14.125 C7.88728027 15.11693359 7.88728027 15.11693359 8.27441406 16.12890625 C9.24256288 18.62550536 10.28050268 21.0917327 11.3125 23.5625 C12.70442085 27.02208751 13.60702347 30.26672299 14 34 C12.35 34 10.7 34 9 34 C7.74335022 31.09399739 7 29.20395416 7 26 C2.05 26 -2.9 26 -8 26 C-8 25.67 -8 25.34 -8 25 C-3.38 25 1.24 25 6 25 C5.34 23.288125 4.68 21.57625 4 19.8125 C2.53790131 16.02018151 1.76171563 13.07317344 2 9 C-0.33075929 9.95865509 -0.33075929 9.95865509 -2 13 C-1.979375 12.195625 -1.95875 11.39125 -1.9375 10.5625 C-1.70366379 8.06645115 -1.70366379 8.06645115 -3 7 C-1.125 1.125 -1.125 1.125 0 0 Z " fill="#DD3E36" transform="translate(241,44)"/>
<path d="M0 0 C0.66 0 1.32 0 2 0 C3.01031065 2.55885226 4.00840145 5.12140376 5 7.6875 C5.28617187 8.40873047 5.57234375 9.12996094 5.8671875 9.87304688 C7.3390502 13.71040321 8.39614998 16.81566589 8 21 C7.34 21.33 6.68 21.66 6 22 C5.32694982 20.39850114 4.66177773 18.79368971 4 17.1875 C3.62875 16.29417969 3.2575 15.40085937 2.875 14.48046875 C2 12 2 12 2 9 C-0.76807691 10.38403845 -0.91705621 11.89035155 -2 14.75 C-2.33 15.61109375 -2.66 16.4721875 -3 17.359375 C-3.33 18.23078125 -3.66 19.1021875 -4 20 C-4.99 22.475 -4.99 22.475 -6 25 C-1.71 25 2.58 25 7 25 C7 25.33 7 25.66 7 26 C2.05 26 -2.9 26 -8 26 C-8 18.78403604 -6.59307138 13.42988066 -3.4375 7.0625 C-3.10814453 6.37865234 -2.77878906 5.69480469 -2.43945312 4.99023438 C-1.63482961 3.32268129 -0.8186103 1.66073161 0 0 Z " fill="#DB342A" transform="translate(294,44)"/>
<path d="M0 0 C6.93 0 13.86 0 21 0 C21 0.66 21 1.32 21 2 C15.39 2 9.78 2 4 2 C4 5.63 4 9.26 4 13 C7.96 13 11.92 13 16 13 C16 13.99 16 14.98 16 16 C11.71 16 7.42 16 3 16 C3 20.29 3 24.58 3 29 C2.67 29 2.34 29 2 29 C1.67 25.7 1.34 22.4 1 19 C0.67 19 0.34 19 0 19 C0 12.73 0 6.46 0 0 Z " fill="#D8231A" transform="translate(150,45)"/>
<path d="M0 0 C0.99 0 1.98 0 3 0 C3 5.61 3 11.22 3 17 C1.576875 17.061875 0.15375 17.12375 -1.3125 17.1875 C-2.51326172 17.23970703 -2.51326172 17.23970703 -3.73828125 17.29296875 C-6 17 -6 17 -7.76953125 15.67578125 C-9.6691714 13.08865228 -9.38880875 11.11047001 -9 8 C-7.875 6.0625 -7.875 6.0625 -6 5 C-2.8125 5.3125 -2.8125 5.3125 0 6 C0 4.02 0 2.04 0 0 Z " fill="#344384" transform="translate(218,11)"/>
<path d="M0 0 C0.99 0 1.98 0 3 0 C3 1.98 3 3.96 3 6 C4.3921875 5.6596875 4.3921875 5.6596875 5.8125 5.3125 C9 5 9 5 10.9375 6 C12.62100864 9.16895745 11.80173218 11.60805614 11 15 C9 17 9 17 6.8359375 17.1953125 C4.55729167 17.13020833 2.27864583 17.06510417 0 17 C0 11.39 0 5.78 0 0 Z " fill="#43518D" transform="translate(175,11)"/>
<path d="M0 0 C8.625 -0.25 8.625 -0.25 12 2 C12.39964378 5.1305429 12.52149743 7.13083761 10.875 9.875 C8.21965017 11.4682099 6.03210482 11.20214032 3 11 C3 12.98 3 14.96 3 17 C2.01 17 1.02 17 0 17 C0 11.39 0 5.78 0 0 Z " fill="#2E3E81" transform="translate(258,11)"/>
<path d="M0 0 C8.625 -0.25 8.625 -0.25 12 2 C12.39964378 5.1305429 12.52149743 7.13083761 10.875 9.875 C8.21965017 11.4682099 6.03210482 11.20214032 3 11 C3 12.98 3 14.96 3 17 C2.01 17 1.02 17 0 17 C0 11.39 0 5.78 0 0 Z " fill="#2E3D80" transform="translate(111,11)"/>
<path d="M0 0 C1.32 0 2.64 0 4 0 C4 11.22 4 22.44 4 34 C2.68 34 1.36 34 0 34 C0 22.78 0 11.56 0 0 Z " fill="#DB2F28" transform="translate(213,44)"/>
<path d="M0 0 C9.24 0 18.48 0 28 0 C28 0.66 28 1.32 28 2 C23.71 2 19.42 2 15 2 C15 11.9 15 21.8 15 32 C14.01 32 13.02 32 12 32 C11.67 22.43 11.34 12.86 11 3 C7.37 2.67 3.74 2.34 0 2 C0 1.34 0 0.68 0 0 Z " fill="#D92116" transform="translate(253,45)"/>
<path d="M0 0 C0.33 0 0.66 0 1 0 C1.33 5.28 1.66 10.56 2 16 C2.33 16 2.66 16 3 16 C3 20.62 3 25.24 3 30 C6.02734375 29.64192708 9.0546875 29.28385417 12.08203125 28.92578125 C15 29 15 29 16.88671875 30.48046875 C17.25410156 30.98191406 17.62148437 31.48335937 18 32 C13 34 13 34 0 34 C0 22.78 0 11.56 0 0 Z " fill="#DB2E24" transform="translate(179,44)"/>
<path d="M0 0 C0.66 0 1.32 0 2 0 C2.67467562 1.74692795 3.33944156 3.49768525 4 5.25 C4.556875 6.71179687 4.556875 6.71179687 5.125 8.203125 C6 11 6 11 6 15 C2.04 15 -1.92 15 -6 15 C-4.32819664 9.74576086 -2.62305301 4.87138415 0 0 Z " fill="#FAEBEB" transform="translate(294,53)"/>
<path d="M0 0 C0.99 3.63 1.98 7.26 3 11 C2.34 10.67 1.68 10.34 1 10 C1 9.34 1 8.68 1 8 C0.34 8 -0.32 8 -1 8 C-0.67 10.64 -0.34 13.28 0 16 C-2.42130331 13.57869669 -2.52840504 12.19888623 -3.125 8.875 C-3.29257812 7.96492188 -3.46015625 7.05484375 -3.6328125 6.1171875 C-3.75398438 5.41851562 -3.87515625 4.71984375 -4 4 C-6.97 4.66 -9.94 5.32 -13 6 C-13 5.34 -13 4.68 -13 4 C-13.67546875 4.22816406 -14.3509375 4.45632812 -15.046875 4.69140625 C-15.93890625 4.97886719 -16.8309375 5.26632813 -17.75 5.5625 C-18.63171875 5.85253906 -19.5134375 6.14257812 -20.421875 6.44140625 C-23.07834316 7.01697435 -24.47031106 6.89248371 -27 6 C-26.13117187 5.73445313 -25.26234375 5.46890625 -24.3671875 5.1953125 C-23.21476562 4.84210937 -22.06234375 4.48890625 -20.875 4.125 C-19.73804688 3.77695312 -18.60109375 3.42890625 -17.4296875 3.0703125 C-15.22069268 2.3809451 -13.02348754 1.65193615 -10.84375 0.875 C-7.03382974 -0.29728316 -3.96354101 -0.13667383 0 0 Z " fill="#DFDBE3" transform="translate(32,23)"/>
<path d="M0 0 C0.66 0 1.32 0 2 0 C2.48212214 1.56159059 2.96055873 3.12431928 3.4375 4.6875 C3.83775391 5.99267578 3.83775391 5.99267578 4.24609375 7.32421875 C4.95785055 9.8504022 5.48528572 12.4264286 6 15 C2.04 15 -1.92 15 -6 15 C-4.32819664 9.74576086 -2.62305301 4.87138415 0 0 Z " fill="#FAEEED" transform="translate(369,53)"/>
<path d="M0 0 C0.66 0 1.32 0 2 0 C2.6700834 2.12392506 3.33596797 4.24917524 4 6.375 C4.37125 7.55835938 4.7425 8.74171875 5.125 9.9609375 C6 13 6 13 6 15 C2.04 15 -1.92 15 -6 15 C-2.83561644 3.69863014 -2.83561644 3.69863014 0 0 Z " fill="#FBEEEE" transform="translate(241,53)"/>
<path d="M0 0 C2.875 -0.125 2.875 -0.125 6 0 C8 2 8 2 8.1953125 4.3828125 C8.17210937 5.28773437 8.14890625 6.19265625 8.125 7.125 C8.10695312 8.03507812 8.08890625 8.94515625 8.0703125 9.8828125 C8.04710937 10.58148438 8.02390625 11.28015625 8 12 C6.54207116 12.05399736 5.08357288 12.09279177 3.625 12.125 C2.81289062 12.14820313 2.00078125 12.17140625 1.1640625 12.1953125 C-1 12 -1 12 -3 10 C-3 8 -3 8 -2 6 C1.0625 4.75 1.0625 4.75 4 4 C3.01 3.34 2.02 2.68 1 2 C1 2.66 1 3.32 1 4 C0.01 4 -0.98 4 -2 4 C-1.34 2.68 -0.68 1.36 0 0 Z " fill="#374685" transform="translate(226,16)"/>
<path d="M0 0 C0.33 1.98 0.66 3.96 1 6 C-1.31 6 -3.62 6 -6 6 C-5.67 6.66 -5.34 7.32 -5 8 C-3.02 7.67 -1.04 7.34 1 7 C0.34 8.32 -0.32 9.64 -1 11 C-7.75 10.25 -7.75 10.25 -10 8 C-10.375 5.0625 -10.375 5.0625 -10 2 C-6.92702006 -1.66393762 -4.38919352 -1.09729838 0 0 Z " fill="#2B3B7F" transform="translate(135,17)"/>
<path d="M0 0 C1.093125 0.226875 2.18625 0.45375 3.3125 0.6875 C3.6425 4.3175 3.9725 7.9475 4.3125 11.6875 C-4.4375 11.8125 -4.4375 11.8125 -6.6875 10.6875 C-6.6875 9.0375 -6.6875 7.3875 -6.6875 5.6875 C-5.718125 5.39875 -4.74875 5.11 -3.75 4.8125 C-0.58085797 4.04535318 -0.58085797 4.04535318 0.3125 1.6875 C-0.285625 2.038125 -0.88375 2.38875 -1.5 2.75 C-3.6875 3.6875 -3.6875 3.6875 -6.6875 2.6875 C-4.58035839 -0.41123767 -3.86755884 -0.32775922 0 0 Z " fill="#2F3F81" transform="translate(334.6875,16.3125)"/>
<path d="M0 0 C1.093125 0.226875 2.18625 0.45375 3.3125 0.6875 C3.6425 4.3175 3.9725 7.9475 4.3125 11.6875 C-4.4375 11.8125 -4.4375 11.8125 -6.6875 10.6875 C-6.6875 9.0375 -6.6875 7.3875 -6.6875 5.6875 C-5.718125 5.39875 -4.74875 5.11 -3.75 4.8125 C-0.58085797 4.04535318 -0.58085797 4.04535318 0.3125 1.6875 C-0.285625 2.038125 -0.88375 2.38875 -1.5 2.75 C-3.6875 3.6875 -3.6875 3.6875 -6.6875 2.6875 C-4.58035839 -0.41123767 -3.86755884 -0.32775922 0 0 Z " fill="#2F3E81" transform="translate(360.6875,16.3125)"/>
<path d="M0 0 C0.99 0 1.98 0 3 0 C3.33 2.31 3.66 4.62 4 7 C4.66 6.34 5.32 5.68 6 5 C8.125 5.375 8.125 5.375 10 6 C9.01 7.32 8.02 8.64 7 10 C7.495 10.78375 7.99 11.5675 8.5 12.375 C10 15 10 15 10 17 C8.68 16.67 7.36 16.34 6 16 C5.67 14.68 5.34 13.36 5 12 C4.34 12 3.68 12 3 12 C3 13.65 3 15.3 3 17 C2.01 17 1.02 17 0 17 C0 11.39 0 5.78 0 0 Z " fill="#374686" transform="translate(342,11)"/>
<path d="M0 0 C-0.69867187 0.26554687 -1.39734375 0.53109375 -2.1171875 0.8046875 C-3.02726562 1.15789063 -3.93734375 1.51109375 -4.875 1.875 C-5.77992187 2.22304688 -6.68484375 2.57109375 -7.6171875 2.9296875 C-10.12217007 3.88530895 -10.12217007 3.88530895 -12 6 C-12.33 5.67 -12.66 5.34 -13 5 C-17.455 5.495 -17.455 5.495 -22 6 C-22 22.5 -22 39 -22 56 C-22.33 56 -22.66 56 -23 56 C-23 39.17 -23 22.34 -23 5 C-17.72 3.35 -12.44 1.7 -7 0 C-3.86650268 -1.04449911 -3.01031744 -0.93423645 0 0 Z " fill="#DC433D" transform="translate(28,28)"/>
<path d="M0 0 C6.8359375 -0.1953125 6.8359375 -0.1953125 9 0 C11 2 11 2 11.1953125 4.3828125 C11.17210937 5.28773437 11.14890625 6.19265625 11.125 7.125 C11.10695312 8.03507812 11.08890625 8.94515625 11.0703125 9.8828125 C11.04710937 10.58148438 11.02390625 11.28015625 11 12 C9.68 12 8.36 12 7 12 C7 8.7 7 5.4 7 2 C6.01 2.33 5.02 2.66 4 3 C3.67 5.97 3.34 8.94 3 12 C2.01 12 1.02 12 0 12 C0 8.04 0 4.08 0 0 Z " fill="#3C4B89" transform="translate(139,16)"/>
<path d="M0 0 C6.8359375 -0.1953125 6.8359375 -0.1953125 9 0 C11 2 11 2 11.1953125 4.3828125 C11.17210937 5.28773437 11.14890625 6.19265625 11.125 7.125 C11.10695312 8.03507812 11.08890625 8.94515625 11.0703125 9.8828125 C11.04710937 10.58148438 11.02390625 11.28015625 11 12 C10.01 12 9.02 12 8 12 C7.67 9.03 7.34 6.06 7 3 C5.68 3 4.36 3 3 3 C3 5.97 3 8.94 3 12 C2.01 12 1.02 12 0 12 C0 8.04 0 4.08 0 0 Z " fill="#324183" transform="translate(237,16)"/>
<path d="M0 0 C2.97 0 5.94 0 9 0 C8.67 0.99 8.34 1.98 8 3 C6.68 3.33 5.36 3.66 4 4 C3.67 12.58 3.34 21.16 3 30 C2.67 30 2.34 30 2 30 C1.67 26.04 1.34 22.08 1 18 C0.67 18 0.34 18 0 18 C0 12.06 0 6.12 0 0 Z " fill="#D92016" transform="translate(180,44)"/>
<path d="M0 0 C6.93359375 -0.09765625 6.93359375 -0.09765625 9 0 C10 1 10 1 10.09765625 3.50390625 C10.08605469 4.51324219 10.07445312 5.52257812 10.0625 6.5625 C10.05347656 7.57441406 10.04445313 8.58632813 10.03515625 9.62890625 C10.02355469 10.41136719 10.01195312 11.19382812 10 12 C9.01 12 8.02 12 7 12 C7 8.7 7 5.4 7 2 C6.01 2.33 5.02 2.66 4 3 C3.67 5.97 3.34 8.94 3 12 C2.01 12 1.02 12 0 12 C0 8.04 0 4.08 0 0 Z " fill="#3C4B89" transform="translate(368,16)"/>
<path d="M0 0 C-0.44700615 7.59910454 -3.1257676 14.00692989 -6 21 C-6.66782957 22.66620104 -7.33493364 24.3326941 -8 26 C-9.87978657 23.26822383 -10.01655381 22.11615725 -9.5390625 18.765625 C-9.23742188 17.60546875 -8.93578125 16.4453125 -8.625 15.25 C-8.18027344 13.49429688 -8.18027344 13.49429688 -7.7265625 11.703125 C-7.48679688 10.81109375 -7.24703125 9.9190625 -7 9 C-6.34 9 -5.68 9 -5 9 C-4.8453125 7.6078125 -4.8453125 7.6078125 -4.6875 6.1875 C-4.13812165 3.64038221 -3.2972453 0 0 0 Z " fill="#F6EBEA" transform="translate(61,46)"/>
<path d="M0 0 C0.66 0 1.32 0 2 0 C2.21432579 6.64409958 1.51233701 12.53205867 0 19 C-1.32 19.33 -2.64 19.66 -4 20 C-4.66268329 12.87615459 -2.25388064 6.69120815 0 0 Z " fill="#DC352C" transform="translate(111,58)"/>
<path d="M0 0 C1.67542976 0.28604898 3.34385343 0.61781233 5 1 C5.33 2.98 5.66 4.96 6 7 C3.69 7 1.38 7 -1 7 C-0.67 7.66 -0.34 8.32 0 9 C1.98 8.67 3.96 8.34 6 8 C5.67 8.99 5.34 9.98 5 11 C2.1875 11.625 2.1875 11.625 -1 12 C-1.99 11.34 -2.98 10.68 -4 10 C-4.1875 6.875 -4.1875 6.875 -4 4 C-3.34 3.67 -2.68 3.34 -2 3 C-2 3.66 -2 4.32 -2 5 C-0.35 5 1.3 5 3 5 C2.04134491 2.66924071 2.04134491 2.66924071 -1 1 C-0.67 0.67 -0.34 0.34 0 0 Z " fill="#314183" transform="translate(312,16)"/>
<path d="M0 0 C1.67542976 0.28604898 3.34385343 0.61781233 5 1 C5.33 2.98 5.66 4.96 6 7 C3.69 7 1.38 7 -1 7 C-0.67 7.66 -0.34 8.32 0 9 C1.98 8.67 3.96 8.34 6 8 C5.67 8.99 5.34 9.98 5 11 C2.1875 11.625 2.1875 11.625 -1 12 C-1.99 11.34 -2.98 10.68 -4 10 C-4.1875 6.875 -4.1875 6.875 -4 4 C-3.34 3.67 -2.68 3.34 -2 3 C-2 3.66 -2 4.32 -2 5 C-0.35 5 1.3 5 3 5 C2.04134491 2.66924071 2.04134491 2.66924071 -1 1 C-0.67 0.67 -0.34 0.34 0 0 Z " fill="#314182" transform="translate(277,16)"/>
<path d="M0 0 C1.67542976 0.28604898 3.34385343 0.61781233 5 1 C5.33 2.98 5.66 4.96 6 7 C3.69 7 1.38 7 -1 7 C-0.67 7.66 -0.34 8.32 0 9 C1.98 8.67 3.96 8.34 6 8 C5.67 8.99 5.34 9.98 5 11 C2.1875 11.625 2.1875 11.625 -1 12 C-1.99 11.34 -2.98 10.68 -4 10 C-4.1875 6.875 -4.1875 6.875 -4 4 C-3.34 3.67 -2.68 3.34 -2 3 C-2 3.66 -2 4.32 -2 5 C-0.35 5 1.3 5 3 5 C2.04134491 2.66924071 2.04134491 2.66924071 -1 1 C-0.67 0.67 -0.34 0.34 0 0 Z " fill="#314182" transform="translate(157,16)"/>
<path d="M0 0 C0.33 0.99 0.66 1.98 1 3 C1.66 3 2.32 3 3 3 C3.66 2.01 4.32 1.02 5 0 C6.38529821 5.45461169 7.2396943 10.36718401 7 16 C5.68 16 4.36 16 3 16 C2.49411853 14.08487728 1.99551609 12.16783078 1.5 10.25 C1.2215625 9.18265625 0.943125 8.1153125 0.65625 7.015625 C0 4 0 4 0 0 Z " fill="#DB352C" transform="translate(342,62)"/>
<path d="M0 0 C3.625 0.375 3.625 0.375 7 1 C7.33 1.99 7.66 2.98 8 4 C7.01 4 6.02 4 5 4 C5 3.34 5 2.68 5 2 C4.01 2.33 3.02 2.66 2 3 C2 4.98 2 6.96 2 9 C2.99 9.33 3.98 9.66 5 10 C5 9.34 5 8.68 5 8 C6.32 8.33 7.64 8.66 9 9 C6.73262056 11.01544839 5.42714016 11.94914998 2.375 12.3125 C0 12 0 12 -2 10 C-2.265625 8.125 -2.265625 8.125 -2.25 6 C-2.25515625 5.29875 -2.2603125 4.5975 -2.265625 3.875 C-2 2 -2 2 0 0 Z " fill="#3D4B89" transform="translate(297,16)"/>
<path d="M0 0 C0.66 0 1.32 0 2 0 C4.85288164 5.73230171 6.53444296 10.59859065 7 17 C5.68 16.67 4.36 16.34 3 16 C2.49411853 14.08487728 1.99551609 12.16783078 1.5 10.25 C1.2215625 9.18265625 0.943125 8.1153125 0.65625 7.015625 C0 4 0 4 0 0 Z " fill="#F4E2E1" transform="translate(31,31)"/>
<path d="M0 0 C0.99 0 1.98 0 3 0 C3.33 4.62 3.66 9.24 4 14 C4.99 14.33 5.98 14.66 7 15 C7 15.66 7 16.32 7 17 C4.69 17 2.38 17 0 17 C0 11.39 0 5.78 0 0 Z " fill="#28387D" transform="translate(175,11)"/>
<path d="M0 0 C0.66 0 1.32 0 2 0 C2 0.99 2 1.98 2 3 C2.99 3 3.98 3 5 3 C5 3.66 5 4.32 5 5 C4.01 5 3.02 5 2 5 C2 7.64 2 10.28 2 13 C2.99 13 3.98 13 5 13 C5 13.66 5 14.32 5 15 C2.03 14.505 2.03 14.505 -1 14 C-1.22226864 12.23086176 -1.42733873 10.45955629 -1.625 8.6875 C-1.74101562 7.70136719 -1.85703125 6.71523438 -1.9765625 5.69921875 C-2 3 -2 3 0 0 Z " fill="#3B4A89" transform="translate(322,13)"/>
<path d="M0 0 C0.99 0 1.98 0 3 0 C2.4721307 4.48688907 1.70509 7.73727501 0 12 C4.29 12 8.58 12 13 12 C13 12.33 13 12.66 13 13 C8.05 13 3.1 13 -2 13 C-2 4 -2 4 0 0 Z " fill="#DC3129" transform="translate(288,57)"/>
<path d="M0 0 C0.66 0.33 1.32 0.66 2 1 C4.2072923 1.07092842 6.41667452 1.08415025 8.625 1.0625 C10.40777344 1.04896484 10.40777344 1.04896484 12.2265625 1.03515625 C13.59941406 1.01775391 13.59941406 1.01775391 15 1 C15 1.99 15 2.98 15 4 C10.71 4 6.42 4 2 4 C2 8.29 2 12.58 2 17 C1.67 17 1.34 17 1 17 C0.67 13.7 0.34 10.4 0 7 C-0.33 7 -0.66 7 -1 7 C-1.04254356 5.00045254 -1.04080783 2.99958364 -1 1 C-0.67 0.67 -0.34 0.34 0 0 Z " fill="#D92219" transform="translate(151,57)"/>
<path d="M0 0 C0.33 1.32 0.66 2.64 1 4 C1.66 4 2.32 4 3 4 C3 4.66 3 5.32 3 6 C2.34 6 1.68 6 1 6 C1 8.64 1 11.28 1 14 C1.66 14 2.32 14 3 14 C3 14.66 3 15.32 3 16 C1.35 15.67 -0.3 15.34 -2 15 C-2.25002209 13.25285767 -2.47423194 11.50200859 -2.6875 9.75 C-2.81511719 8.77546875 -2.94273437 7.8009375 -3.07421875 6.796875 C-2.9871902 3.51727269 -2.19219402 2.36689329 0 0 Z " fill="#2D3D80" transform="translate(198,12)"/>
<path d="M0 0 C0.99 0 1.98 0 3 0 C3.53394179 1.4117783 4.05165104 2.82970244 4.5625 4.25 C4.85253906 5.03890625 5.14257812 5.8278125 5.44140625 6.640625 C6.04522837 9.19103452 5.8473932 10.55322229 5 13 C4.67 11.68 4.34 10.36 4 9 C1.525 10.485 1.525 10.485 -1 12 C-1.08159574 7.83861737 -0.98248524 4.0527516 0 0 Z " fill="#DB2E29" transform="translate(113,44)"/>
<path d="M0 0 C1.32 0 2.64 0 4 0 C3.6852134 3.46265264 3.29733158 5.58585959 1.25 8.4375 C-1 10 -1 10 -3.75 9.75 C-4.4925 9.5025 -5.235 9.255 -6 9 C-6 7 -6 7 -3.5625 4.5 C-2.716875 3.675 -1.87125 2.85 -1 2 C-0.67 1.34 -0.34 0.68 0 0 Z " fill="#DA2A21" transform="translate(200,65)"/>
<path d="M0 0 C0.66 1.32 1.32 2.64 2 4 C2.99 4 3.98 4 5 4 C4.67 5.32 4.34 6.64 4 8 C4 7.01 4 6.02 4 5 C3.34 5 2.68 5 2 5 C1.855625 5.763125 1.71125 6.52625 1.5625 7.3125 C1 10 1 10 0 13 C-1.32 12.67 -2.64 12.34 -4 12 C-3.33501617 7.61110675 -1.81242323 4.0188515 0 0 Z " fill="#DD4139" transform="translate(337,53)"/>
<path d="M0 0 C0.66 0 1.32 0 2 0 C2 3.96 2 7.92 2 12 C5.63 12 9.26 12 13 12 C13 12.33 13 12.66 13 13 C11.06257659 13.02703381 9.12504521 13.04641125 7.1875 13.0625 C6.10855469 13.07410156 5.02960938 13.08570313 3.91796875 13.09765625 C1 13 1 13 -2 12 C-2.05422947 10.5629191 -2.09289723 9.12524538 -2.125 7.6875 C-2.14820313 6.88699219 -2.17140625 6.08648437 -2.1953125 5.26171875 C-2 3 -2 3 0 0 Z " fill="#DC342A" transform="translate(152,46)"/>
<path d="M0 0 C2.01822917 0.06510417 4.03645833 0.13020833 6.0546875 0.1953125 C7.0446875 3.8253125 8.0346875 7.4553125 9.0546875 11.1953125 C8.3946875 10.8653125 7.7346875 10.5353125 7.0546875 10.1953125 C7.0546875 9.5353125 7.0546875 8.8753125 7.0546875 8.1953125 C6.3946875 8.1953125 5.7346875 8.1953125 5.0546875 8.1953125 C5.3846875 10.8353125 5.7146875 13.4753125 6.0546875 16.1953125 C3.7417393 13.8823643 3.55887775 12.71626375 2.9296875 9.5703125 C2.76210938 8.75304688 2.59453125 7.93578125 2.421875 7.09375 C2.30070312 6.46726562 2.17953125 5.84078125 2.0546875 5.1953125 C3.0446875 5.5253125 4.0346875 5.8553125 5.0546875 6.1953125 C5.0546875 4.5453125 5.0546875 2.8953125 5.0546875 1.1953125 C0.5996875 1.6903125 0.5996875 1.6903125 -3.9453125 2.1953125 C-1.9453125 0.1953125 -1.9453125 0.1953125 0 0 Z " fill="#CAB1BB" transform="translate(25.9453125,22.8046875)"/>
<path d="M0 0 C1.32 0 2.64 0 4 0 C4 3.96 4 7.92 4 12 C2.68 12 1.36 12 0 12 C0 8.04 0 4.08 0 0 Z " fill="#526097" transform="translate(189,16)"/>
<path d="M0 0 C4 6 4 6 4 11 C2.35 11 0.7 11 -1 11 C-1.66 8.69 -2.32 6.38 -3 4 C-2.34 4 -1.68 4 -1 4 C-1.33 3.01 -1.66 2.02 -2 1 C-1.34 0.67 -0.68 0.34 0 0 Z " fill="#DC3E36" transform="translate(251,67)"/>
<path d="M0 0 C2.49936244 2.49936244 3.03723753 4.64808008 4.125 8 C4.47820313 9.0725 4.83140625 10.145 5.1953125 11.25 C6 14 6 14 6 16 C5.01 16 4.02 16 3 16 C3.33 18.64 3.66 21.28 4 24 C1.6870518 21.6870518 1.50419025 20.52095125 0.875 17.375 C0.62363281 16.14910156 0.62363281 16.14910156 0.3671875 14.8984375 C0.24601562 14.27195312 0.12484375 13.64546875 0 13 C0.99 13.33 1.98 13.66 3 14 C2.7834375 13.32453125 2.566875 12.6490625 2.34375 11.953125 C2.0653125 11.06109375 1.786875 10.1690625 1.5 9.25 C1.2215625 8.36828125 0.943125 7.4865625 0.65625 6.578125 C0 4 0 4 0 0 Z " fill="#C2A5B2" transform="translate(35,34)"/>
<path d="M0 0 C0.66 0 1.32 0 2 0 C2.84600276 2.0364495 3.6762825 4.07943487 4.5 6.125 C4.9640625 7.26195312 5.428125 8.39890625 5.90625 9.5703125 C6.98315041 12.9471645 7.21360807 15.48614728 7 19 C3.86322373 17.43161186 3.46255562 14.33319141 2.375 11.1875 C2.14554688 10.55779297 1.91609375 9.92808594 1.6796875 9.27929688 C0.50632841 5.9512873 0 3.57857128 0 0 Z " fill="#D62020" transform="translate(33,47)"/>
<path d="M0 0 C2.31 0 4.62 0 7 0 C7 0.66 7 1.32 7 2 C6.01 2.33 5.02 2.66 4 3 C3.67 5.97 3.34 8.94 3 12 C2.01 12 1.02 12 0 12 C0 8.04 0 4.08 0 0 Z " fill="#2B3B7F" transform="translate(286,16)"/>
<path d="M0 0 C2.31 0 4.62 0 7 0 C7 0.66 7 1.32 7 2 C6.01 2.33 5.02 2.66 4 3 C3.67 5.97 3.34 8.94 3 12 C2.01 12 1.02 12 0 12 C0 8.04 0 4.08 0 0 Z " fill="#2A3B7F" transform="translate(166,16)"/>
<path d="M0 0 C0.66 0 1.32 0 2 0 C2.2226746 1.43534841 2.42761906 2.87345525 2.625 4.3125 C2.74101562 5.11300781 2.85703125 5.91351563 2.9765625 6.73828125 C3 9 3 9 1 12 C0.34 11.01 -0.32 10.02 -1 9 C-1.66 8.67 -2.32 8.34 -3 8 C-2.45276317 4.62537285 -1.9451 2.91765 0 0 Z " fill="#DB2E26" transform="translate(341,44)"/>
<path d="M0 0 C1 2 1 2 0.22265625 4.3828125 C-0.16019531 5.28773437 -0.54304688 6.19265625 -0.9375 7.125 C-1.31777344 8.03507812 -1.69804688 8.94515625 -2.08984375 9.8828125 C-2.54037109 10.93082031 -2.54037109 10.93082031 -3 12 C-3.66 11.34 -4.32 10.68 -5 10 C-5.680625 11.1446875 -5.680625 11.1446875 -6.375 12.3125 C-7.53824492 14.23632814 -8.7529415 16.12941224 -10 18 C-9.46246904 11.81839396 -7.45417612 6.673142 -5 1 C-4.06576355 4.01031744 -3.95550089 4.86650268 -5 8 C-1.75267068 6.37633534 -1.29844864 3.24612161 0 0 Z " fill="#C1AAB9" transform="translate(65,37)"/>
<path d="M0 0 C-0.69867187 0.26554687 -1.39734375 0.53109375 -2.1171875 0.8046875 C-3.02726562 1.15789063 -3.93734375 1.51109375 -4.875 1.875 C-5.77992187 2.22304688 -6.68484375 2.57109375 -7.6171875 2.9296875 C-10.12217007 3.88530895 -10.12217007 3.88530895 -12 6 C-12.33 5.67 -12.66 5.34 -13 5 C-14.69141656 5.08963062 -16.37959602 5.24577676 -18.0625 5.4375 C-18.98160156 5.53933594 -19.90070312 5.64117187 -20.84765625 5.74609375 C-21.91306641 5.87177734 -21.91306641 5.87177734 -23 6 C-20.08422373 3.08422373 -16.48891465 2.43894023 -12.625 1.3125 C-11.85671875 1.07466797 -11.0884375 0.83683594 -10.296875 0.59179688 C-9.55179688 0.37201172 -8.80671875 0.15222656 -8.0390625 -0.07421875 C-7.02126709 -0.37718872 -7.02126709 -0.37718872 -5.98291016 -0.6862793 C-3.70870567 -1.04608633 -2.17622661 -0.69470212 0 0 Z " fill="#DF6A65" transform="translate(28,28)"/>
<path d="M0 0 C-2.66389689 2.66389689 -4.40323509 2.98142077 -8.13671875 3.09765625 C-9.30847656 3.08605469 -10.48023438 3.07445313 -11.6875 3.0625 C-13.45673828 3.04896484 -13.45673828 3.04896484 -15.26171875 3.03515625 C-16.16535156 3.02355469 -17.06898438 3.01195313 -18 3 C-18 2.67 -18 2.34 -18 2 C-14.7 1.67 -11.4 1.34 -8 1 C-9.65 0.67 -11.3 0.34 -13 0 C-13 -0.33 -13 -0.66 -13 -1 C-4.57142857 -2.42857143 -4.57142857 -2.42857143 0 0 Z " fill="#DD4641" transform="translate(197,75)"/>
<path d="M0 0 C0.33 1.32 0.66 2.64 1 4 C1.66 4 2.32 4 3 4 C2.34 6.31 1.68 8.62 1 11 C-0.65 11 -2.3 11 -4 11 C-2.7874262 7.27566618 -1.49140021 3.62197194 0 0 Z " fill="#DE423B" transform="translate(358,67)"/>
<path d="M0 0 C-0.33 1.98 -0.66 3.96 -1 6 C-3.97 5.505 -3.97 5.505 -7 5 C-7 3.35 -7 1.7 -7 0 C-4.3333581 -1.33332095 -2.83319697 -0.67102033 0 0 Z " fill="#6F7AA8" transform="translate(361,22)"/>
<path d="M0 0 C0.66 0 1.32 0 2 0 C2 0.66 2 1.32 2 2 C5.96 2 9.92 2 14 2 C14.33 2.99 14.66 3.98 15 5 C9.72 5 4.44 5 -1 5 C-0.67 3.35 -0.34 1.7 0 0 Z " fill="#DD5048" transform="translate(233,66)"/>
<path d="M0 0 C1.2065625 0.0309375 1.2065625 0.0309375 2.4375 0.0625 C2.7675 1.3825 3.0975 2.7025 3.4375 4.0625 C1.0625 5.625 1.0625 5.625 -1.5625 7.0625 C-2.2225 6.7325 -2.8825 6.4025 -3.5625 6.0625 C-3.605221 4.39638095 -3.60313832 2.72867115 -3.5625 1.0625 C-2.5625 0.0625 -2.5625 0.0625 0 0 Z " fill="#737DAA" transform="translate(331.5625,20.9375)"/>
<path d="M0 0 C0.66 0 1.32 0 2 0 C2.33 2.64 2.66 5.28 3 8 C0.03 8 -2.94 8 -6 8 C-6.33 6.68 -6.66 5.36 -7 4 C-6.34 3.67 -5.68 3.34 -5 3 C-4.67 3.66 -4.34 4.32 -4 5 C-3.01 5 -2.02 5 -1 5 C-0.67 3.35 -0.34 1.7 0 0 Z " fill="#2B3B7F" transform="translate(231,20)"/>
<path d="M0 0 C0.33 0 0.66 0 1 0 C1 1.98 1 3.96 1 6 C1.66 6.33 2.32 6.66 3 7 C2.01 7.495 2.01 7.495 1 8 C0.27840576 9.64363134 -0.39351421 11.31050386 -1 13 C-1.33 12.34 -1.66 11.68 -2 11 C-2.66 11 -3.32 11 -4 11 C-3.52269162 9.5410574 -3.04308958 8.08286504 -2.5625 6.625 C-2.29566406 5.81289063 -2.02882813 5.00078125 -1.75390625 4.1640625 C-1 2 -1 2 0 0 Z " fill="#DB3C35" transform="translate(293,46)"/>
<path d="M0 0 C2.0625 0.4375 2.0625 0.4375 4 1 C4 2.98 4 4.96 4 7 C2.0625 7.5625 2.0625 7.5625 0 8 C-1 7 -1 7 -1.125 4 C-1 1 -1 1 0 0 Z " fill="#EBEDF3" transform="translate(179,18)"/>
<path d="M0 0 C0.33 0 0.66 0 1 0 C1.85298376 3.67387495 2.10789471 7.0447393 2.0625 10.8125 C2.05347656 11.78832031 2.04445312 12.76414062 2.03515625 13.76953125 C2.02355469 14.50558594 2.01195312 15.24164063 2 16 C1.01 16 0.02 16 -1 16 C-0.67 10.72 -0.34 5.44 0 0 Z " fill="#D82217" transform="translate(214,61)"/>
<path d="M0 0 C6.625 0.75 6.625 0.75 10 3 C8.02 3 6.04 3 4 3 C6.475 3.99 6.475 3.99 9 5 C5.69564916 6.12377697 3.9493138 5.89554742 0.75 4.5625 C0.04359375 4.27503906 -0.6628125 3.98757812 -1.390625 3.69140625 C-1.92171875 3.46324219 -2.4528125 3.23507813 -3 3 C-2.01 2.67 -1.02 2.34 0 2 C0 1.34 0 0.68 0 0 Z " fill="#DEC7CB" transform="translate(79,26)"/>
<path d="M0 0 C0.66 0 1.32 0 2 0 C2 0.66 2 1.32 2 2 C2.66 2.33 3.32 2.66 4 3 C3.67 5.97 3.34 8.94 3 12 C2.01 12 1.02 12 0 12 C0 8.04 0 4.08 0 0 Z " fill="#28387D" transform="translate(139,16)"/>
<path d="M0 0 C0.99 0 1.98 0 3 0 C3 0.66 3 1.32 3 2 C2.01 2 1.02 2 0 2 C0 2.66 0 3.32 0 4 C-4.29 4.66 -8.58 5.32 -13 6 C-9.95465573 2.95465573 -9.32676487 2.58297091 -5.375 1.875 C-2.40059351 1.50902407 -2.40059351 1.50902407 0 0 Z " fill="#222E76" transform="translate(28,19)"/>
<path d="M0 0 C0.66 0 1.32 0 2 0 C3.26237731 2.52475462 3.09856404 4.31200466 3.0625 7.125 C3.05347656 8.03507812 3.04445313 8.94515625 3.03515625 9.8828125 C3.02355469 10.58148438 3.01195312 11.28015625 3 12 C2.01 12 1.02 12 0 12 C0 8.04 0 4.08 0 0 Z " fill="#2E3E81" transform="translate(368,16)"/>
<path d="M0 0 C0 1.65 0 3.3 0 5 C-1.66611905 5.042721 -3.33382885 5.04063832 -5 5 C-5.33 4.67 -5.66 4.34 -6 4 C-6.33 5.65 -6.66 7.3 -7 9 C-7.33 9 -7.66 9 -8 9 C-8.25 6.1875 -8.25 6.1875 -8 3 C-5.22094435 0.02244037 -4.2016934 0 0 0 Z " fill="#818BB3" transform="translate(133,16)"/>
<path d="M0 0 C4.33142291 0.79900034 8.56416268 1.91199334 12.8125 3.0625 C13.50537109 3.24876953 14.19824219 3.43503906 14.91210938 3.62695312 C16.60845641 4.08321198 18.3042818 4.54140954 20 5 C15.84616705 6.1615864 12.30965808 6.20522181 8 6 C5.19637616 4.13091744 2.61514317 2.12038635 0 0 Z " fill="#DA4441" transform="translate(72,28)"/>
<path d="M0 0 C2.0625 0.4375 2.0625 0.4375 4 1 C4 2.65 4 4.3 4 6 C2.02 6.99 2.02 6.99 0 8 C-1 7 -1 7 -1.125 4 C-1 1 -1 1 0 0 Z " fill="#EFF0F5" transform="translate(214,18)"/>
<path d="M0 0 C0.99 0.33 1.98 0.66 3 1 C4.6875 4.5625 4.6875 4.5625 6 8 C4.02 8 2.04 8 0 8 C0 5.36 0 2.72 0 0 Z " fill="#DB2F28" transform="translate(303,70)"/>
<path d="M0 0 C1.0625 1.8125 1.0625 1.8125 2 4 C1.67 4.99 1.34 5.98 1 7 C-4.61 6.67 -10.22 6.34 -16 6 C-16 5.67 -16 5.34 -16 5 C-11.38 5 -6.76 5 -2 5 C-1.67 3.68 -1.34 2.36 -1 1 C-0.67 0.67 -0.34 0.34 0 0 Z " fill="#DA1F15" transform="translate(249,64)"/>
<path d="M0 0 C0.33 0.99 0.66 1.98 1 3 C0.34 3 -0.32 3 -1 3 C-1.04898438 3.62648437 -1.09796875 4.25296875 -1.1484375 4.8984375 C-1.22320312 5.71570312 -1.29796875 6.53296875 -1.375 7.375 C-1.44460937 8.18710937 -1.51421875 8.99921875 -1.5859375 9.8359375 C-2 12 -2 12 -4 14 C-5.34382872 7.76952141 -5.34382872 7.76952141 -3.6875 4.0625 C-3.130625 3.381875 -2.57375 2.70125 -2 2 C-1.34 2 -0.68 2 0 2 C0 1.34 0 0.68 0 0 Z " fill="#DB3128" transform="translate(240,49)"/>
<path d="M0 0 C4.54805635 -0.17835515 7.8794254 0.00214565 12 2 C12 2.66 12 3.32 12 4 C9.69 4 7.38 4 5 4 C5 3.34 5 2.68 5 2 C3.35 2 1.7 2 0 2 C0 1.34 0 0.68 0 0 Z " fill="#F0EDF0" transform="translate(67,24)"/>
<path d="M0 0 C1.32 0.33 2.64 0.66 4 1 C3.01 1 2.02 1 1 1 C1 1.66 1 2.32 1 3 C2.65 3 4.3 3 6 3 C5.01 3.33 4.02 3.66 3 4 C1.79117904 6.00016466 1.79117904 6.00016466 1 8 C0.67 7.34 0.34 6.68 0 6 C-0.99 7.32 -1.98 8.64 -3 10 C-2.25 3.375 -2.25 3.375 0 0 Z " fill="#CFC8D5" transform="translate(66,23)"/>
<path d="M0 0 C0 0.99 0 1.98 0 3 C4.29 3 8.58 3 13 3 C13 3.33 13 3.66 13 4 C4.585 4.495 4.585 4.495 -4 5 C-4 3.68 -4 2.36 -4 1 C-2 0 -2 0 0 0 Z " fill="#D91E17" transform="translate(363,66)"/>
<path d="M0 0 C1.5625 1.1875 1.5625 1.1875 3 3 C2.6875 5.6875 2.6875 5.6875 2 8 C0.68 8 -0.64 8 -2 8 C-1.125 1.125 -1.125 1.125 0 0 Z " fill="#DC3C35" transform="translate(315,70)"/>
<path d="M0 0 C-2.4453385 2.96527758 -4.44602347 3.55582214 -8.1875 4.1875 C-9.08855469 4.34605469 -9.98960938 4.50460938 -10.91796875 4.66796875 C-11.94857422 4.83232422 -11.94857422 4.83232422 -13 5 C-12.67 4.01 -12.34 3.02 -12 2 C-9.78515625 1.015625 -9.78515625 1.015625 -7.0625 0.25 C-6.16660156 -0.01296875 -5.27070313 -0.2759375 -4.34765625 -0.546875 C-2 -1 -2 -1 0 0 Z " fill="#FAF5F4" transform="translate(21,27)"/>
<path d="M0 0 C0.99 0 1.98 0 3 0 C3.33 0.66 3.66 1.32 4 2 C5.98 1.67 7.96 1.34 10 1 C9.34 2.32 8.68 3.64 8 5 C5.69 4.67 3.38 4.34 1 4 C0.67 2.68 0.34 1.36 0 0 Z " fill="#3C4A89" transform="translate(126,23)"/>
<path d="M0 0 C0.66 0 1.32 0 2 0 C2.05422947 1.4370809 2.09289723 2.87475462 2.125 4.3125 C2.14820312 5.11300781 2.17140625 5.91351563 2.1953125 6.73828125 C2 9 2 9 0 12 C-1.1671568 8.49852959 -1.13357453 5.67329964 -1 2 C-0.67 1.34 -0.34 0.68 0 0 Z " fill="#D92419" transform="translate(111,58)"/>
<path d="M0 0 C0.33 0 0.66 0 1 0 C0.58846263 4.97093824 0.20399168 9.44508386 -2 14 C-3.51047521 11.61704813 -4.09191411 10.501733 -3.57421875 7.67578125 C-3.28160156 6.89589844 -2.98898438 6.11601563 -2.6875 5.3125 C-2.40261719 4.52488281 -2.11773437 3.73726562 -1.82421875 2.92578125 C-1 1 -1 1 0 0 Z " fill="#FAF3F1" transform="translate(55,58)"/>
<path d="M0 0 C0.99 0 1.98 0 3 0 C3 4.95 3 9.9 3 15 C2.67 15 2.34 15 2 15 C1.67 12.69 1.34 10.38 1 8 C0.67 8 0.34 8 0 8 C0 5.36 0 2.72 0 0 Z " fill="#D81D12" transform="translate(214,45)"/>
<path d="M0 0 C0 0.99 0 1.98 0 3 C-3.82989106 4.80230168 -6.78121808 5.19622241 -11 5 C-9.04754573 1.09509146 -4.11653518 0 0 0 Z " fill="#D61D1E" transform="translate(28,28)"/>
<path d="M0 0 C1.65 0 3.3 0 5 0 C5.5625 1.9375 5.5625 1.9375 6 4 C5 5 5 5 2.4375 5.0625 C1.2309375 5.0315625 1.2309375 5.0315625 0 5 C0 3.35 0 1.7 0 0 Z " fill="#F8F8FA" transform="translate(261,14)"/>
<path d="M0 0 C1.65 0 3.3 0 5 0 C5.5625 1.9375 5.5625 1.9375 6 4 C5 5 5 5 2.4375 5.0625 C1.2309375 5.0315625 1.2309375 5.0315625 0 5 C0 3.35 0 1.7 0 0 Z " fill="#F8F9FA" transform="translate(114,14)"/>
<path d="M0 0 C0.33 0.66 0.66 1.32 1 2 C1.99 2.33 2.98 2.66 4 3 C3.67 4.32 3.34 5.64 3 7 C1.35 7 -0.3 7 -2 7 C-1.125 2.25 -1.125 2.25 0 0 Z " fill="#DE453F" transform="translate(228,71)"/>
<path d="M0 0 C0.99 0 1.98 0 3 0 C3.33 2.64 3.66 5.28 4 8 C3.01 8 2.02 8 1 8 C0.67 5.36 0.34 2.72 0 0 Z " fill="#F2EDEE" transform="translate(38,50)"/>
<path d="M0 0 C0.66 1.32 1.32 2.64 2 4 C2.66 3.01 3.32 2.02 4 1 C4.309375 1.94875 4.61875 2.8975 4.9375 3.875 C5.87394742 6.86080408 5.87394742 6.86080408 7 9 C2.25 8.25 2.25 8.25 0 6 C-0.125 2.875 -0.125 2.875 0 0 Z " fill="#536098" transform="translate(209,19)"/>
<path d="M0 0 C2.00720923 0.28674418 4.0085944 0.61866701 6 1 C5.67 2.32 5.34 3.64 5 5 C1.125 4.125 1.125 4.125 0 3 C-0.66 3.66 -1.32 4.32 -2 5 C-1.125 1.125 -1.125 1.125 0 0 Z " fill="#949CBE" transform="translate(225,21)"/>
<path d="M0 0 C1.98 0.66 3.96 1.32 6 2 C6 2.66 6 3.32 6 4 C4.33388095 4.042721 2.66617115 4.04063832 1 4 C0.67 3.67 0.34 3.34 0 3 C-0.33 4.65 -0.66 6.3 -1 8 C-1.33 8 -1.66 8 -2 8 C-2.125 5.125 -2.125 5.125 -2 2 C-1.34 1.34 -0.68 0.68 0 0 Z " fill="#99A1C1" transform="translate(309,17)"/>
<path d="M0 0 C1.98 0.66 3.96 1.32 6 2 C6 2.66 6 3.32 6 4 C4.33388095 4.042721 2.66617115 4.04063832 1 4 C0.67 3.67 0.34 3.34 0 3 C-0.33 4.65 -0.66 6.3 -1 8 C-1.33 8 -1.66 8 -2 8 C-2.125 5.125 -2.125 5.125 -2 2 C-1.34 1.34 -0.68 0.68 0 0 Z " fill="#99A1C1" transform="translate(274,17)"/>
<path d="M0 0 C1.98 0.66 3.96 1.32 6 2 C6 2.66 6 3.32 6 4 C4.33388095 4.042721 2.66617115 4.04063832 1 4 C0.67 3.67 0.34 3.34 0 3 C-0.33 4.65 -0.66 6.3 -1 8 C-1.33 8 -1.66 8 -2 8 C-2.125 5.125 -2.125 5.125 -2 2 C-1.34 1.34 -0.68 0.68 0 0 Z " fill="#99A1C1" transform="translate(154,17)"/>
<path d="M0 0 C0.33 0.99 0.66 1.98 1 3 C1.66 3 2.32 3 3 3 C3.66 2.01 4.32 1.02 5 0 C5.33 2.64 5.66 5.28 6 8 C4.35 8 2.7 8 1 8 C0.67 5.36 0.34 2.72 0 0 Z " fill="#E15B57" transform="translate(342,62)"/>
<path d="M0 0 C1.32 0.33 2.64 0.66 4 1 C4.625 2.875 4.625 2.875 5 5 C4.34 5.66 3.68 6.32 3 7 C2.34 7 1.68 7 1 7 C0.67 4.69 0.34 2.38 0 0 Z " fill="#DC342C" transform="translate(245,59)"/>
<path d="M0 0 C0.33 1.32 0.66 2.64 1 4 C5.29 4 9.58 4 14 4 C14 4.33 14 4.66 14 5 C9.05 5 4.1 5 -1 5 C-1 1 -1 1 0 0 Z " fill="#DB1C12" transform="translate(287,65)"/>
<path d="M0 0 C0.88336837 2.4667645 1.1312406 3.63859372 0.22265625 6.140625 C-0.16019531 6.83671875 -0.54304688 7.5328125 -0.9375 8.25 C-1.31777344 8.95640625 -1.69804688 9.6628125 -2.08984375 10.390625 C-2.39019531 10.92171875 -2.69054688 11.4528125 -3 12 C-3.88336837 9.5332355 -4.1312406 8.36140628 -3.22265625 5.859375 C-2.83980469 5.16328125 -2.45695312 4.4671875 -2.0625 3.75 C-1.68222656 3.04359375 -1.30195312 2.3371875 -0.91015625 1.609375 C-0.60980469 1.07828125 -0.30945312 0.5471875 0 0 Z " fill="#D61B1B" transform="translate(60,57)"/>
<path d="M0 0 C1.32 1.32 2.64 2.64 4 4 C3.01 5.32 2.02 6.64 1 8 C-2 3.25 -2 3.25 -2 1 C-1.34 0.67 -0.68 0.34 0 0 Z " fill="#D92921" transform="translate(199,48)"/>
<path d="M0 0 C2.97 0.99 5.94 1.98 9 3 C5.29847322 3.92538169 4.36541838 4.08174162 1 3 C0.67 4.32 0.34 5.64 0 7 C-0.66 7 -1.32 7 -2 7 C-1.34 4.69 -0.68 2.38 0 0 Z " fill="#D61819" transform="translate(70,28)"/>
<path d="M0 0 C3 3.75 3 3.75 3 6 C1.35 6 -0.3 6 -2 6 C-2.33 4.35 -2.66 2.7 -3 1 C-2.01 0.67 -1.02 0.34 0 0 Z " fill="#DE4C45" transform="translate(375,57)"/>
<path d="M0 0 C2.31 0 4.62 0 7 0 C7.33 0.66 7.66 1.32 8 2 C7.34 2 6.68 2 6 2 C6 5.3 6 8.6 6 12 C5.67 12 5.34 12 5 12 C5 8.7 5 5.4 5 2 C3.35 2 1.7 2 0 2 C0 1.34 0 0.68 0 0 Z " fill="#5D699D" transform="translate(141,16)"/>
<path d="M0 0 C1.85776765 3.13498292 2.20140476 5.37471432 2 9 C2.66 9.33 3.32 9.66 4 10 C4 10.99 4 11.98 4 13 C3.01 13 2.02 13 1 13 C0.63779734 11.20994059 0.28547531 9.41787943 -0.0625 7.625 C-0.25972656 6.62726562 -0.45695312 5.62953125 -0.66015625 4.6015625 C-1 2 -1 2 0 0 Z " fill="#4C518C" transform="translate(46,57)"/>
<path d="M0 0 C0 1.98 0 3.96 0 6 C-0.99 6.33 -1.98 6.66 -3 7 C-3.33 5.02 -3.66 3.04 -4 1 C-2 0 -2 0 0 0 Z " fill="#DB3D33" transform="translate(126,71)"/>
<path d="M0 0 C0.99 0 1.98 0 3 0 C3.33 1.98 3.66 3.96 4 6 C3.01 5.67 2.02 5.34 1 5 C0.67 5.66 0.34 6.32 0 7 C0 4.69 0 2.38 0 0 Z " fill="#D2CEDB" transform="translate(42,59)"/>
<path d="M0 0 C0.598125 0.350625 1.19625 0.70125 1.8125 1.0625 C1.1525 1.0625 0.4925 1.0625 -0.1875 1.0625 C-0.1875 2.0525 -0.1875 3.0425 -0.1875 4.0625 C-1.8375 4.0625 -3.4875 4.0625 -5.1875 4.0625 C-5.1875 2.7425 -5.1875 1.4225 -5.1875 0.0625 C-2.1875 -0.9375 -2.1875 -0.9375 0 0 Z " fill="#DF433B" transform="translate(322.1875,55.9375)"/>
<path d="M0 0 C0.33 0 0.66 0 1 0 C0.67 2.97 0.34 5.94 0 9 C-0.99 8.01 -1.98 7.02 -3 6 C-3.66 5.67 -4.32 5.34 -5 5 C-4.67 4.01 -4.34 3.02 -4 2 C-4 2.66 -4 3.32 -4 4 C-3.34 4 -2.68 4 -2 4 C-1.34 2.68 -0.68 1.36 0 0 Z " fill="#DC3D35" transform="translate(343,47)"/>
<path d="M0 0 C1.45922693 0.11409593 2.91740598 0.24165544 4.375 0.375 C5.59316406 0.47941406 5.59316406 0.47941406 6.8359375 0.5859375 C9 1 9 1 11 3 C3.57142857 3.28571429 3.57142857 3.28571429 0 1 C0 0.67 0 0.34 0 0 Z " fill="#202B74" transform="translate(70,21)"/>
<path d="M0 0 C2.15341979 2.15341979 2.64111965 3.03923709 3 6 C2.01 7.485 2.01 7.485 1 9 C1 8.34 1 7.68 1 7 C0.01 7.33 -0.98 7.66 -2 8 C-1.34 5.36 -0.68 2.72 0 0 Z " fill="#DD3933" transform="translate(127,60)"/>
<path d="M0 0 C0.66 0 1.32 0 2 0 C1.01 3.96 0.02 7.92 -1 12 C-1.66 10.68 -2.32 9.36 -3 8 C-2.67 7.01 -2.34 6.02 -2 5 C-1.34 5 -0.68 5 0 5 C0 3.35 0 1.7 0 0 Z " fill="#353C7E" transform="translate(54,49)"/>
<path d="M0 0 C0.33 0.66 0.66 1.32 1 2 C1.66 2 2.32 2 3 2 C3 3.32 3 4.64 3 6 C1.68 6 0.36 6 -1 6 C-1.042721 4.33388095 -1.04063832 2.66617115 -1 1 C-0.67 0.67 -0.34 0.34 0 0 Z " fill="#DC2F26" transform="translate(138,64)"/>
<path d="M0 0 C7.42857143 -0.14285714 7.42857143 -0.14285714 11 1 C11 1.66 11 2.32 11 3 C6.94393835 2.53199289 3.53411321 2.12046792 0 0 Z " fill="#D61A1A" transform="translate(81,33)"/>
<path d="M0 0 C1.65 0.33 3.3 0.66 5 1 C5.33 1.99 5.66 2.98 6 4 C5.01 4 4.02 4 3 4 C3 3.34 3 2.68 3 2 C1.02 2.66 -0.96 3.32 -3 4 C-2.01 2.68 -1.02 1.36 0 0 Z " fill="#2E3D80" transform="translate(299,16)"/>
<path d="M0 0 C0.66 0 1.32 0 2 0 C2.33 1.98 2.66 3.96 3 6 C1.68 5.67 0.36 5.34 -1 5 C-0.67 3.35 -0.34 1.7 0 0 Z " fill="#DE352C" transform="translate(380,72)"/>
<path d="M0 0 C2.475 0.495 2.475 0.495 5 1 C5.33 2.65 5.66 4.3 6 6 C5.01 6 4.02 6 3 6 C3 4.35 3 2.7 3 1 C2.01 1.33 1.02 1.66 0 2 C0 1.34 0 0.68 0 0 Z " fill="#DC342A" transform="translate(374,63)"/>
<path d="M0 0 C0.99 0.33 1.98 0.66 3 1 C3.33 2.98 3.66 4.96 4 7 C3.01 6.67 2.02 6.34 1 6 C0.67 4.02 0.34 2.04 0 0 Z " fill="#DA251B" transform="translate(324,56)"/>
<path d="M0 0 C1.98 0.495 1.98 0.495 4 1 C3.67 2.65 3.34 4.3 3 6 C2.34 5.34 1.68 4.68 1 4 C0.34 4.66 -0.32 5.32 -1 6 C-0.67 4.02 -0.34 2.04 0 0 Z " fill="#D7D1DC" transform="translate(54,55)"/>
<path d="M0 0 C1.98 0 3.96 0 6 0 C6.33 1.65 6.66 3.3 7 5 C6.34 3.68 5.68 2.36 5 1 C2.525 2.485 2.525 2.485 0 4 C0 2.68 0 1.36 0 0 Z " fill="#DA261C" transform="translate(112,52)"/>
<path d="M0 0 C2 2 2 2 2 5 C0.35 5 -1.3 5 -3 5 C-1.125 1.125 -1.125 1.125 0 0 Z " fill="#DC352E" transform="translate(357,73)"/>
<path d="M0 0 C0.99 0.495 0.99 0.495 2 1 C2.59355614 3.64860427 2.74209269 6.29197322 3 9 C2.34 8.67 1.68 8.34 1 8 C0.40644386 5.35139573 0.25790731 2.70802678 0 0 Z " fill="#D61A1A" transform="translate(42,71)"/>
<path d="M0 0 C1.88391785 3.26545761 2.49287967 6.28111761 3 10 C1.68 9.01 0.36 8.02 -1 7 C-0.67 4.69 -0.34 2.38 0 0 Z " fill="#DF423D" transform="translate(109,63)"/>
<path d="M0 0 C0.99 0.33 1.98 0.66 3 1 C3 2.65 3 4.3 3 6 C2.01 6.495 2.01 6.495 1 7 C0.67 4.69 0.34 2.38 0 0 Z " fill="#DC231A" transform="translate(299,59)"/>
<path d="M0 0 C0.99 0 1.98 0 3 0 C3.33 0.99 3.66 1.98 4 3 C2.5625 5.1875 2.5625 5.1875 1 7 C0.67 4.69 0.34 2.38 0 0 Z " fill="#D92A21" transform="translate(128,58)"/>
<path d="M0 0 C0.99 0 1.98 0 3 0 C3.33 1.65 3.66 3.3 4 5 C2.68 4.67 1.36 4.34 0 4 C0 2.68 0 1.36 0 0 Z " fill="#DE453C" transform="translate(113,44)"/>
<path d="M0 0 C0.66 0 1.32 0 2 0 C2.33 2.64 2.66 5.28 3 8 C2.01 7.34 1.02 6.68 0 6 C-0.1875 2.875 -0.1875 2.875 0 0 Z " fill="#242E76" transform="translate(40,42)"/>
<path d="M0 0 C1.5 1.1875 1.5 1.1875 3 3 C3.1875 5.6875 3.1875 5.6875 3 8 C2.34 8 1.68 8 1 8 C0.67 5.36 0.34 2.72 0 0 Z " fill="#D61E1E" transform="translate(30,38)"/>
</svg>
